<svg width="24" height="24" viewBox="0 0 24 24" fill="none" xmlns="http://www.w3.org/2000/svg">
<path d="M4.28571 3.44444H19.7143C20.0553 3.44444 20.3823 3.57321 20.6234 3.80243C20.8645 4.03164 21 4.34251 21 4.66667V21.7778C21 22.1019 20.8645 22.4128 20.6234 22.642C20.3823 22.8712 20.0553 23 19.7143 23H4.28571C3.94472 23 3.6177 22.8712 3.37658 22.642C3.13546 22.4128 3 22.1019 3 21.7778V4.66667C3 4.34251 3.13546 4.03164 3.37658 3.80243C3.6177 3.57321 3.94472 3.44444 4.28571 3.44444ZM12 8.33333C11.4914 8.33333 10.9943 8.4767 10.5714 8.7453C10.1485 9.0139 9.81893 9.39567 9.62431 9.84233C9.42968 10.289 9.37876 10.7805 9.47798 11.2547C9.5772 11.7288 9.8221 12.1644 10.1817 12.5063C10.5413 12.8481 10.9995 13.0809 11.4983 13.1753C11.9971 13.2696 12.5142 13.2212 12.984 13.0361C13.4539 12.8511 13.8555 12.5378 14.1381 12.1358C14.4206 11.7339 14.5714 11.2612 14.5714 10.7778C14.5714 10.1295 14.3005 9.50772 13.8183 9.04929C13.336 8.59087 12.682 8.33333 12 8.33333ZM15.8571 16.8889C15.8571 15.9164 15.4508 14.9838 14.7274 14.2962C14.0041 13.6085 13.023 13.2222 12 13.2222C10.977 13.2222 9.99594 13.6085 9.27259 14.2962C8.54923 14.9838 8.14286 15.9164 8.14286 16.8889V18.1111H15.8571V16.8889ZM16.5 1H13.9286L12.6429 3.44444H15.2143L16.5 1ZM8.78571 3.44444H11.3571L10.0714 1H7.5L8.78571 3.44444Z" fill="black" stroke="#1D1E25" stroke-width="0.5" stroke-linecap="round" stroke-linejoin="round"/>
</svg>
