<svg width="16" height="24" viewBox="0 0 16 24" fill="none" xmlns="http://www.w3.org/2000/svg">
<path d="M8.98047 0.00600157C9.08849 -0.00763541 9.19818 0.00202931 9.30217 0.0343635C9.40615 0.0666976 9.50205 0.120943 9.58342 0.193471C9.6648 0.265998 9.72977 0.355124 9.77399 0.454883C9.8182 0.554642 9.84064 0.662733 9.8398 0.771897V8.69418L6.83215 23.6454C6.74357 23.7849 6.61232 23.8919 6.45803 23.9504C6.30375 24.009 6.13471 24.0158 5.9762 23.97C5.81769 23.9243 5.67823 23.8282 5.57865 23.6964C5.47908 23.5645 5.42476 23.4039 5.42381 23.2385M8.98047 0.00600157C8.87023 0.0214526 8.76468 0.0608695 8.67122 0.121506C8.57776 0.182143 8.49864 0.262528 8.43941 0.357034L0.116656 13.3854M8.98047 0.00600157L9.07329 0.741219L9.07441 0.750096C9.07606 0.749887 9.07772 0.750021 9.0793 0.750488C9.07936 0.750505 9.07942 0.750523 9.07948 0.750541C9.07952 0.750553 9.07956 0.750566 9.07959 0.750578M8.98047 0.00600157L9.08316 0.738701L9.08457 0.748743C9.08288 0.748979 9.08119 0.749577 9.07959 0.750578M0.116656 13.3854C0.0443091 13.5011 0.00413726 13.6341 0.000302801 13.7706C-0.00353165 13.9072 0.0291108 14.0422 0.0948482 14.1619C0.160586 14.2815 0.257027 14.3813 0.37418 14.451C0.491334 14.5207 0.624939 14.5577 0.761153 14.5582M0.116656 13.3854L0.748699 13.7891L0.752135 13.7838M0.116656 13.3854L0.752608 13.783C0.752444 13.7832 0.752286 13.7835 0.752135 13.7838M0.761153 14.5582H4.67381H5.42381V15.3082V23.2385M0.761153 14.5582L0.763881 13.8082C0.763783 13.8082 0.763684 13.8082 0.763586 13.8082M0.761153 14.5582V13.8082H0.763586M5.42381 23.2385H6.17381V23.2347M5.42381 23.2385L6.17379 23.2341C6.17379 23.2343 6.1738 23.2345 6.17381 23.2347M6.17381 23.2347V14.5582V13.8082H5.42381H0.763586M6.17381 23.2347C6.17395 23.2384 6.17522 23.2418 6.1772 23.2444C6.17924 23.2471 6.18183 23.2488 6.18438 23.2495C6.1869 23.2502 6.18954 23.2501 6.19202 23.2492C6.19454 23.2482 6.19709 23.2463 6.19897 23.2434L6.20022 23.2414L14.523 10.221L14.5239 10.2196C14.5255 10.2171 14.5265 10.2141 14.5266 10.2108C14.5267 10.2075 14.5259 10.2044 14.5245 10.2017C14.523 10.1991 14.5211 10.1972 14.519 10.1959C14.5179 10.1953 14.5168 10.1948 14.5156 10.1945C14.5146 10.1943 14.5136 10.1942 14.5126 10.1942L14.5104 10.1942L9.8398 10.1942H9.0898V9.44418V0.771897V0.766114L9.08982 0.766114C9.08984 0.763523 9.08931 0.761016 9.08832 0.758794C9.08734 0.756584 9.08597 0.754757 9.0844 0.753362C9.0829 0.75202 9.08125 0.751109 9.07959 0.750578M0.763586 13.8082C0.761587 13.8081 0.759527 13.8076 0.757582 13.8064C0.755531 13.8052 0.753575 13.8033 0.75214 13.8007C0.750701 13.798 0.749916 13.7949 0.750007 13.7917C0.750089 13.7888 0.750862 13.7861 0.752135 13.7838M0.752135 13.7838L9.07146 0.760795L9.07148 0.76081L9.07491 0.75533C9.07618 0.753314 9.07776 0.751767 9.07943 0.750684C9.07948 0.750648 9.07954 0.750613 9.07959 0.750578" stroke="#1D1E25" stroke-width="1.5"/>
</svg>
