<svg width="32" height="30" viewBox="0 0 32 30" fill="none" xmlns="http://www.w3.org/2000/svg">
<g filter="url(#filter0_d_29322_127)">
<path d="M9.97423 17.2192H10.5992L8.27661 20.3978C7.86029 20.9675 7.29587 21.25 6.74782 21.25C5.76735 21.25 4.75 20.2422 4.75 18.7104V14.9756C6.14884 16.3613 7.96443 17.2192 9.97423 17.2192Z" stroke="#1D1E25" stroke-width="1.5"/>
<path d="M10.8351 15.0405H21.165C24.4699 15.0405 27.0358 12.1022 27.0358 8.64599C27.0358 5.18844 24.47 2.25 21.165 2.25H10.8351C7.53009 2.25 4.96429 5.18844 4.96429 8.64599C4.96429 12.1022 7.53021 15.0405 10.8351 15.0405Z" stroke="#1D1E25" stroke-width="1.5"/>
<path d="M10.5 6V11M8 8.5H13" stroke="#1D1E25" stroke-width="1.5"/>
<path d="M21.4008 17.2192H22.0258C24.0356 17.2192 25.8512 16.3613 27.25 14.9756V18.7104C27.25 20.2422 26.2326 21.25 25.2522 21.25C24.7041 21.25 24.1397 20.9675 23.7234 20.3979C23.7234 20.3979 23.7234 20.3979 23.7234 20.3978L21.4008 17.2192Z" stroke="#1D1E25" stroke-width="1.5"/>
<path d="M22 6C22 6.55228 21.5523 7 21 7C20.4477 7 20 6.55228 20 6C20 5.44772 20.4477 5 21 5C21.5523 5 22 5.44772 22 6Z" fill="#1D1E25"/>
<path d="M22 10C22 10.5523 21.5523 11 21 11C20.4477 11 20 10.5523 20 10C20 9.44772 20.4477 9 21 9C21.5523 9 22 9.44772 22 10Z" fill="#1D1E25"/>
<path d="M24 8C24 8.55228 23.5523 9 23 9C22.4477 9 22 8.55228 22 8C22 7.44772 22.4477 7 23 7C23.5523 7 24 7.44772 24 8Z" fill="#1D1E25"/>
<path d="M20 8C20 8.55228 19.5523 9 19 9C18.4477 9 18 8.55228 18 8C18 7.44772 18.4477 7 19 7C19.5523 7 20 7.44772 20 8Z" fill="#1D1E25"/>
</g>
<defs>
<filter id="filter0_d_29322_127" x="0" y="0" width="32" height="32" filterUnits="userSpaceOnUse" color-interpolation-filters="sRGB">
<feFlood flood-opacity="0" result="BackgroundImageFix"/>
<feColorMatrix in="SourceAlpha" type="matrix" values="0 0 0 0 0 0 0 0 0 0 0 0 0 0 0 0 0 0 127 0" result="hardAlpha"/>
<feOffset dy="4"/>
<feGaussianBlur stdDeviation="2"/>
<feComposite in2="hardAlpha" operator="out"/>
<feColorMatrix type="matrix" values="0 0 0 0 0 0 0 0 0 0 0 0 0 0 0 0 0 0 0.25 0"/>
<feBlend mode="normal" in2="BackgroundImageFix" result="effect1_dropShadow_29322_127"/>
<feBlend mode="normal" in="SourceGraphic" in2="effect1_dropShadow_29322_127" result="shape"/>
</filter>
</defs>
</svg>
