<svg width="22" height="20" viewBox="0 0 22 20" fill="none" xmlns="http://www.w3.org/2000/svg">
<path d="M17.6667 8H20C20.5523 8 21 7.55228 21 7V2C21 1.44772 20.5523 1 20 1H2C1.44772 1 1 1.44772 1 2V7C1 7.55228 1.44771 8 2 8H4.33333" stroke="black" stroke-width="1.5"/>
<path d="M16 5V18C16 18.5523 15.5523 19 15 19H7C6.44772 19 6 18.5523 6 18V5" stroke="black" stroke-width="1.5"/>
<path d="M10.72 14.88V14.08C10.4853 14.0533 10.2373 13.9893 9.97601 13.888C9.72001 13.7813 9.49868 13.6427 9.31201 13.472L9.82401 12.68C10.0267 12.8293 10.2187 12.944 10.4 13.024C10.5867 13.104 10.776 13.144 10.968 13.144C11.4 13.144 11.616 12.96 11.616 12.592C11.616 12.4533 11.5653 12.336 11.464 12.24C11.3627 12.1387 11.232 12.0453 11.072 11.96C10.912 11.8747 10.7413 11.7867 10.56 11.696C10.3787 11.6053 10.208 11.5013 10.048 11.384C9.88801 11.2667 9.75735 11.1253 9.65601 10.96C9.55468 10.7893 9.50401 10.584 9.50401 10.344C9.50401 9.94933 9.61335 9.624 9.83201 9.368C10.0507 9.10667 10.3467 8.93867 10.72 8.864V8.04H11.496V8.848C11.752 8.88533 11.976 8.96267 12.168 9.08C12.36 9.19733 12.5333 9.33867 12.688 9.504L12.096 10.176C11.952 10.0427 11.8133 9.944 11.68 9.88C11.5467 9.81067 11.3947 9.776 11.224 9.776C11.032 9.776 10.8853 9.816 10.784 9.896C10.6827 9.976 10.632 10.1067 10.632 10.288C10.632 10.416 10.6827 10.5253 10.784 10.616C10.8853 10.7013 11.016 10.784 11.176 10.864C11.336 10.944 11.5067 11.0267 11.688 11.112C11.8693 11.1973 12.04 11.3013 12.2 11.424C12.36 11.5467 12.4907 11.696 12.592 11.872C12.6933 12.0427 12.744 12.256 12.744 12.512C12.744 12.896 12.6373 13.2267 12.424 13.504C12.216 13.776 11.9067 13.9573 11.496 14.048V14.88H10.72Z" fill="black"/>
</svg>
