<svg width="24" height="24" viewBox="0 0 24 24" fill="none" xmlns="http://www.w3.org/2000/svg">
<path fill-rule="evenodd" clip-rule="evenodd" d="M12.3961 1.12174C12.5085 1.19843 12.5916 1.30581 12.6333 1.42847C13.329 3.26274 14.2697 5.01103 15.4338 6.63349C18.8033 11.3524 20 13.3982 20 15.4789C20 19.9073 16.7101 23 11.9996 23C7.28904 23 4 19.9073 4 15.4789C4 13.343 5.39758 11.2258 8.56005 6.64323C9.69701 4.99717 10.6394 3.24469 11.3711 1.41548C11.4079 1.28927 11.4916 1.17881 11.6078 1.10323C11.7241 1.02765 11.8654 0.991702 12.0075 1.00162C12.1476 1.003 12.2837 1.04505 12.3961 1.12174Z" stroke="#1D1E25" stroke-width="1.5"/>
<path d="M17.1311 11.7438C16.9896 11.3545 16.5593 11.1537 16.17 11.2952C15.7807 11.4367 15.5799 11.867 15.7214 12.2563L17.1311 11.7438ZM14.5399 19.2797C14.2128 19.5339 14.1537 20.005 14.4079 20.3321C14.662 20.6592 15.1332 20.7183 15.4603 20.4641L14.5399 19.2797ZM16.8294 17.7643L17.5096 18.0802L16.8294 17.7643ZM16.4262 12.0001C15.7214 12.2563 15.7213 12.2561 15.7213 12.256C15.7213 12.256 15.7212 12.2559 15.7212 12.2559C15.7212 12.2558 15.7212 12.2558 15.7212 12.2558C15.7212 12.2559 15.7213 12.2562 15.7215 12.2567C15.7219 12.2578 15.7226 12.2597 15.7236 12.2625C15.7256 12.268 15.7287 12.277 15.733 12.2892C15.7415 12.3137 15.7544 12.3512 15.7708 12.4004C15.8035 12.4988 15.8499 12.6438 15.9032 12.8249C16.01 13.1882 16.1425 13.6913 16.2463 14.2523C16.4634 15.4252 16.5165 16.6575 16.1492 17.4483L17.5096 18.0802C18.0915 16.8274 17.9431 15.1777 17.7213 13.9793C17.6057 13.3547 17.4594 12.8 17.3423 12.4018C17.2836 12.2021 17.2318 12.0404 17.1942 11.9274C17.1755 11.8709 17.1602 11.8265 17.1494 11.7955C17.144 11.7799 17.1397 11.7678 17.1366 11.7591C17.1351 11.7548 17.1338 11.7513 17.1329 11.7488C17.1324 11.7475 17.1321 11.7465 17.1318 11.7456C17.1316 11.7452 17.1315 11.7449 17.1314 11.7446C17.1313 11.7444 17.1313 11.7442 17.1312 11.7442C17.1312 11.744 17.1311 11.7438 16.4262 12.0001ZM16.1492 17.4483C15.957 17.8622 15.5764 18.3135 15.1989 18.6888C15.0172 18.8695 14.8493 19.0197 14.7274 19.1244C14.6667 19.1765 14.6179 19.2168 14.5851 19.2434C14.5688 19.2567 14.5565 19.2665 14.5487 19.2727C14.5449 19.2757 14.5422 19.2779 14.5407 19.2791C14.5399 19.2797 14.5395 19.28 14.5393 19.2801C14.5393 19.2802 14.5393 19.2802 14.5394 19.2801C14.5394 19.28 14.5395 19.28 14.5396 19.2799C14.5396 19.2799 14.5397 19.2798 14.5397 19.2798C14.5398 19.2798 14.5399 19.2797 15.0001 19.8719C15.4603 20.4641 15.4604 20.464 15.4605 20.464C15.4605 20.4639 15.4606 20.4638 15.4607 20.4638C15.4609 20.4637 15.4611 20.4635 15.4613 20.4633C15.4617 20.463 15.4622 20.4626 15.4627 20.4622C15.4639 20.4613 15.4654 20.4601 15.4671 20.4587C15.4707 20.456 15.4755 20.4522 15.4815 20.4474C15.4935 20.4378 15.5103 20.4244 15.5313 20.4073C15.5733 20.3732 15.6324 20.3244 15.7041 20.2628C15.8473 20.14 16.0432 19.9646 16.2565 19.7526C16.669 19.3425 17.2031 18.74 17.5096 18.0802L16.1492 17.4483Z" fill="#1D1E25"/>
</svg>
