<svg width="16" height="20" viewBox="0 0 16 20" fill="none" xmlns="http://www.w3.org/2000/svg">
<path d="M0.769233 1.79487V4.50256C0.768765 4.74221 0.852226 4.97445 1.00513 5.15897L5.66154 10.7385C5.81444 10.923 5.89791 11.1552 5.89744 11.3949V19.2308L10 17.1795V11.3949C9.99953 11.1552 10.083 10.923 10.2359 10.7385L14.8923 5.15897C15.0452 4.97445 15.1287 4.74221 15.1282 4.50256V1.79487C15.1282 1.52285 15.0201 1.26198 14.8278 1.06963C14.6355 0.877289 14.3746 0.769231 14.1026 0.769231H1.79487C1.52286 0.769231 1.26198 0.877289 1.06964 1.06963C0.877291 1.26198 0.769233 1.52285 0.769233 1.79487V1.79487Z" stroke="black" stroke-width="1.5" stroke-linecap="round" stroke-linejoin="round"/>
</svg>
