<svg width="18" height="22" viewBox="0 0 18 22" fill="none" xmlns="http://www.w3.org/2000/svg">
<g clip-path="url(#clip0_88_2657)">
<path d="M4.93228 9.65303V9.64518C4.93304 9.64342 4.93228 9.64266 4.93228 9.64053V9.65303ZM14.306 9.23931C14.1065 9.09153 13.8632 8.91189 13.7781 8.81421C13.8246 8.72652 13.9332 8.56297 14.0276 8.42807C14.5026 7.7335 15.3888 6.44022 15.3888 4.58725C15.3888 2.47129 13.8432 0 9.48903 0C7.42735 0 5.09342 0.681309 3.08327 1.87082C1.27889 2.93901 0.11246 4.18365 0.11246 5.04102C0.11246 5.24537 0.191427 5.43287 0.341201 5.58247C0.905459 6.14567 2.47897 6.13247 4.30048 6.13247C7.00828 6.13247 8.1243 6.28094 8.1243 6.7122C8.1243 7.23467 4.93228 8.52217 4.93228 9.64518C4.93228 10.9449 7.61183 11.1867 8.82471 11.4037C9.96792 11.6091 10.0847 12.2285 10.0847 12.6537C10.0847 13.4485 9.79247 14.1545 9.26104 14.6401C8.75855 15.1 8.13642 15.392 7.22441 15.3498C7.51391 13.2607 6.03544 11.8515 3.88481 11.8515C1.45471 11.8515 0.000976562 13.8672 0.000976562 15.815C0.000976562 18.8876 2.83488 22.0001 8.25223 22.0001C10.3956 22.0001 12.5628 21.2922 14.1962 20.0581C15.5489 19.0368 17.162 17.1788 17.162 14.1281C17.162 11.3478 15.3038 9.9765 14.306 9.23931Z" fill="white"/>
<path d="M4.93228 9.65303V9.64518C4.93304 9.64342 4.93228 9.64266 4.93228 9.64053V9.65303ZM14.306 9.23931C14.1065 9.09153 13.8632 8.91189 13.7781 8.81421C13.8246 8.72652 13.9332 8.56297 14.0276 8.42807C14.5026 7.7335 15.3888 6.44022 15.3888 4.58725C15.3888 2.47129 13.8432 0 9.48903 0C7.42735 0 5.09342 0.681309 3.08327 1.87082C1.27889 2.93901 0.11246 4.18365 0.11246 5.04102C0.11246 5.24537 0.191427 5.43287 0.341201 5.58247C0.905459 6.14567 2.47897 6.13247 4.30048 6.13247C7.00828 6.13247 8.1243 6.28094 8.1243 6.7122C8.1243 7.23467 4.93228 8.52217 4.93228 9.64518C4.93228 10.9449 7.61183 11.1867 8.82471 11.4037C9.96792 11.6091 10.0847 12.2285 10.0847 12.6537C10.0847 13.4485 9.79247 14.1545 9.26104 14.6401C8.75855 15.1 8.13642 15.392 7.22441 15.3498C7.51391 13.2607 6.03544 11.8515 3.88481 11.8515C1.45471 11.8515 0.000976562 13.8672 0.000976562 15.815C0.000976562 18.8876 2.83488 22.0001 8.25223 22.0001C10.3956 22.0001 12.5628 21.2922 14.1962 20.0581C15.5489 19.0368 17.162 17.1788 17.162 14.1281C17.162 11.3478 15.3038 9.9765 14.306 9.23931ZM5.55618 9.64656H5.55115C5.56295 9.30443 6.49568 8.70716 7.11462 8.31217C8.02481 7.72992 8.74311 7.27043 8.74311 6.7122C8.74311 6.48679 8.65661 6.27993 8.4919 6.11569C7.87397 5.49912 6.13719 5.50522 4.29854 5.51345C3.6292 5.51521 2.91875 5.53633 2.24225 5.47838C2.93161 5.24933 3.76893 4.80021 4.69457 4.30571C6.049 3.58034 7.56099 2.77093 8.97895 2.44703C8.60269 2.82348 8.35575 3.27831 8.35575 3.64835C8.35575 3.7994 8.44827 3.96075 8.70626 3.96075C8.93431 3.96075 9.20342 3.87238 9.5147 3.76961C10.3373 3.50089 11.4345 3.14267 12.6687 4.05014C12.2464 4.04838 11.899 4.16504 11.7022 4.3186C11.5127 4.46606 11.4723 4.6249 11.4723 4.73082C11.4723 4.90185 11.601 5.04642 11.7782 5.24719C12.0559 5.56066 12.4358 5.98972 12.4358 6.67323C12.4358 7.2397 12.1975 7.82835 11.8547 8.24705C11.9062 7.87851 11.8426 7.33348 11.6232 7.08337C11.5203 6.96633 11.3848 6.90442 11.2315 6.90442C10.9814 6.90442 10.7387 7.10732 10.3692 7.414C10.1094 7.62903 9.78707 7.89674 9.37824 8.16156C8.16467 8.94344 6.78626 9.74254 5.77494 9.74254C5.71486 9.74248 5.55618 9.72601 5.55618 9.64656ZM7.06465 15.9369C8.13636 15.9948 9.01228 15.7061 9.67848 15.0967C10.3299 14.5011 10.7027 13.6105 10.7027 12.6536C10.7027 12.1114 10.5114 11.7232 10.0891 11.3858C11.6739 11.7117 13.3743 12.5237 14.2495 13.7944C13.7946 13.6359 13.5116 13.5934 13.2142 13.5934C12.987 13.5934 12.784 13.8438 12.784 14.1447C12.784 14.2982 12.8448 14.4861 12.9227 14.7241C13.161 15.4595 13.5452 16.6429 12.5499 18.1352C12.5696 17.519 12.4119 17.0244 12.2154 16.7797C12.0785 16.6097 11.9395 16.5736 11.8469 16.5736C11.5393 16.5736 11.3792 16.8652 11.1562 17.2689C10.7541 17.9979 10.0977 19.1834 8.02921 19.7635C8.32398 19.3112 8.42517 18.826 8.31796 18.5636C8.26473 18.4337 8.15783 18.3554 8.03096 18.3554H8.02312C7.82438 18.3639 7.57744 18.4344 7.29013 18.5146C6.35777 18.7762 4.98263 19.1604 3.56172 18.0161C3.85053 17.9928 4.09993 17.9047 4.2686 17.7588C4.39044 17.6542 4.45729 17.5244 4.45729 17.3948C4.45729 17.1997 4.29609 17.0491 4.09133 16.8587C3.68569 16.4827 3.15107 15.9842 3.57955 14.9482C3.63598 15.1743 3.74006 15.3772 3.88657 15.539C4.05881 15.7304 4.26609 15.8399 4.45654 15.8399C4.87648 15.8399 4.87648 15.4823 4.87648 15.2463C4.87648 14.9353 5.15946 14.6629 5.48148 14.6629C6.39531 14.6629 6.73974 16.0142 6.43636 16.7475C6.73974 16.5119 6.97495 16.1652 7.06465 15.9369ZM13.8246 19.5633C12.2951 20.7178 10.2645 21.3801 8.25217 21.3801C3.24259 21.3801 0.619909 18.5796 0.619909 15.8148C0.619909 14.1708 1.84459 12.4585 3.88801 12.4585C5.09518 12.4585 6.97495 13.0525 6.73974 15.405C6.70478 15.1667 6.39531 14.3294 5.48148 14.3294C4.97258 14.3294 4.54234 14.7488 4.54234 15.2463C4.54234 15.4487 4.4952 15.5053 4.45654 15.5053C4.11882 15.5053 3.69718 15.0075 3.78362 14.174C2.4703 15.6405 3.40623 16.6796 3.86403 17.1037C3.96622 17.1997 4.12209 17.3432 4.12384 17.3947C4.12384 17.5389 3.74752 17.7751 2.80299 17.6885C4.44863 19.651 6.36518 19.1213 7.38014 18.8351C7.63387 18.7646 7.93655 18.6339 8.01552 18.7527C8.14916 18.9341 7.79073 19.7776 7.30651 20.2188C10.0786 19.8563 10.9881 18.2625 11.4473 17.4305C11.6025 17.1506 11.7354 16.9073 11.8468 16.9073C12.1356 16.9073 12.3929 18.0897 12.1982 18.9967C14.0361 17.283 13.5073 15.4433 13.2388 14.6206C13.1737 14.4199 13.1181 14.2459 13.1181 14.1447C13.1181 13.9926 13.1659 13.9504 13.2713 13.9235C13.7309 13.9235 14.2676 14.0881 14.9063 14.3933C13.2063 10.4083 7.32685 10.9551 5.89885 10.0734C6.97915 10.0154 8.35035 9.22095 9.55827 8.44259C9.98493 8.16634 10.3159 7.89184 10.5825 7.67033C10.8612 7.43883 11.102 7.23813 11.2314 7.23813C11.5888 7.23813 11.6384 8.28916 11.4544 8.93326C12.3482 8.35598 12.7692 7.48786 12.7692 6.67304C12.7692 5.86325 12.3224 5.35826 12.0287 5.02474C11.9368 4.92058 11.8107 4.77997 11.8064 4.73057C11.8064 4.68474 11.8407 4.63075 11.9068 4.58172C12.2153 4.35556 12.8163 4.27146 13.4428 4.41351C12.0644 2.64 10.3513 3.14455 9.41069 3.4523C9.12621 3.54571 8.70526 3.67771 8.70526 3.56035C8.70526 3.22501 9.14768 2.53943 9.93383 2.06272C8.32894 1.9536 6.12433 3.16021 4.53801 4.01085C3.24014 4.70567 2.01866 5.35807 1.31567 5.35807C0.88217 5.35807 0.730262 5.20023 0.730262 5.04102C0.730262 3.83649 4.98972 0.619017 9.48897 0.619017C11.1936 0.619017 12.5866 1.04022 13.5176 1.83719C14.3249 2.52925 14.7709 3.50548 14.7709 4.58725C14.7709 6.248 13.9858 7.39357 13.5165 8.07733C13.2757 8.42946 13.1438 8.62306 13.1438 8.82885C13.1438 9.15018 13.4429 9.37131 13.9386 9.73739C14.9131 10.4577 16.5434 11.6604 16.5434 14.1279C16.5435 16.9235 15.0647 18.6258 13.8246 19.5633Z" fill="#1D1E25"/>
</g>
<defs>
<clipPath id="clip0_88_2657">
<rect width="17.1631" height="22" fill="white"/>
</clipPath>
</defs>
</svg>
