<svg width="24" height="24" viewBox="0 0 24 24" fill="none" xmlns="http://www.w3.org/2000/svg">
<path d="M4 4V3.25C3.58579 3.25 3.25 3.58579 3.25 4H4ZM20 4H20.75C20.75 3.58579 20.4142 3.25 20 3.25V4ZM4 4.75H20V3.25H4V4.75ZM19.25 4V18H20.75V4H19.25ZM18 19.25H6V20.75H18V19.25ZM4.75 18V4H3.25V18H4.75ZM6 19.25C5.30964 19.25 4.75 18.6904 4.75 18H3.25C3.25 19.5188 4.48122 20.75 6 20.75V19.25ZM19.25 18C19.25 18.6904 18.6904 19.25 18 19.25V20.75C19.5188 20.75 20.75 19.5188 20.75 18H19.25Z" fill="#1D1E25"/>
<path d="M4 8H20" stroke="#1D1E25" stroke-width="1.5" stroke-linecap="round" stroke-linejoin="round"/>
<path d="M8 12H12" stroke="#1D1E25" stroke-width="1.5" stroke-linecap="round" stroke-linejoin="round"/>
<path d="M16 3V5" stroke="#1D1E25" stroke-width="1.5" stroke-linecap="round" stroke-linejoin="round"/>
<path d="M8 3V5" stroke="#1D1E25" stroke-width="1.5" stroke-linecap="round" stroke-linejoin="round"/>
</svg>
