<svg width="23" height="23" viewBox="0 0 23 23" fill="none" xmlns="http://www.w3.org/2000/svg">
<path d="M14.0371 4.87122C15.0387 5.06664 15.9592 5.55651 16.6809 6.27813C17.4025 6.99975 17.8924 7.92028 18.0878 8.92192M14.0371 0.769245C16.1181 1.00043 18.0586 1.93233 19.5401 3.41195C21.0216 4.89157 21.9559 6.83095 22.1898 8.91166M21.1643 17.0951V20.1716C21.1654 20.4572 21.1069 20.7399 20.9925 21.0016C20.8781 21.2632 20.7103 21.4982 20.4998 21.6912C20.2894 21.8843 20.0409 22.0313 19.7704 22.1228C19.4998 22.2143 19.2131 22.2483 18.9287 22.2226C15.7731 21.8797 12.7419 20.8014 10.0787 19.0743C7.6009 17.4998 5.50019 15.3991 3.92571 12.9213C2.1926 10.246 1.11405 7.20011 0.777444 4.03032C0.751817 3.74673 0.78552 3.46092 0.876404 3.19108C0.967289 2.92123 1.11337 2.67327 1.30533 2.46297C1.4973 2.25268 1.73095 2.08466 1.99141 1.96961C2.25188 1.85456 2.53344 1.79501 2.81818 1.79474H5.89466C6.39234 1.78984 6.87482 1.96608 7.25217 2.2906C7.62952 2.61512 7.87599 3.06578 7.94564 3.55859C8.0755 4.54313 8.31631 5.50982 8.66349 6.44023C8.80146 6.80727 8.83132 7.20618 8.74954 7.58968C8.66775 7.97318 8.47774 8.3252 8.20202 8.60402L6.89964 9.90639C8.35949 12.4738 10.4852 14.5995 13.0526 16.0594L14.355 14.757C14.6338 14.4813 14.9858 14.2913 15.3693 14.2095C15.7528 14.1277 16.1517 14.1575 16.5188 14.2955C17.4492 14.6427 18.4159 14.8835 19.4004 15.0134C19.8986 15.0836 20.3535 15.3345 20.6787 15.7184C21.0039 16.1022 21.1767 16.5922 21.1643 17.0951Z" stroke="#1D1E25" stroke-width="1.5" stroke-linecap="round" stroke-linejoin="round"/>
</svg>
