<svg width="32" height="32" viewBox="0 0 32 32" fill="none" xmlns="http://www.w3.org/2000/svg">
<path d="M23.2707 27.6049L23.7525 27.4653L23.2241 26.7358L23.2707 27.6049ZM15.3603 27.4807L15.2671 28.1328C15.5069 28.1095 15.8021 28.3159 15.9198 27.8533C15.911 27.4929 15.6363 27.473 15.3603 27.4807ZM19.1991 27.4653C19.1591 27.2877 19.0107 27.1569 18.6395 27.2791L18.7638 27.9464C19.0688 27.8789 19.2256 27.6987 19.1991 27.4653ZM10.5271 26.9191L10.3787 27.5121C10.6172 27.522 10.8965 27.7152 11.0548 27.3638C11.0654 27.1437 11.0745 26.9244 10.5271 26.9191ZM18.8727 28.4435L18.9816 29.1267C19.2362 29.1331 19.4685 28.9802 19.4011 28.661C19.3362 28.3539 19.0781 28.4024 18.8727 28.4435Z" fill="#005FAF"/>
<path d="M28.9798 3.12037C20.7503 -1.06785 10.922 -0.95137 3.08095 2.9377C-0.96236 10.0485 -1.0911 19.9977 3.08095 28.8096C11.7194 33.1767 21.2736 32.889 29.0405 28.9922C32.6907 21.5108 33.2936 12.5083 28.9798 3.12037ZM15.081 24.3533L14.5932 24.3588C14.4724 23.0122 14.1502 21.8805 13.4591 21.0144C10.2896 17.0437 3.81055 20.0332 5.47535 13.285C6.34099 9.83519 16.2147 7.80054 15.081 24.3533ZM5.48706 17.6883C6.17912 19.0956 10.515 19.3261 12.0202 20.4034C14.4077 22.112 14.065 24.3595 14.065 24.3595H13.5019C12.3934 20.965 9.28216 23.6527 6.79015 22.7385C5.2256 22.1825 4.08968 19.7729 5.48706 17.6883ZM13.3869 28.7542L13.62 26.9066L14.0396 26.9377L13.853 28.9715C13.6649 29.8674 12.3278 29.7476 12.1591 28.8938L12.3766 26.7824L12.8739 26.8603L12.6564 28.63C12.684 29.2157 13.272 29.1806 13.3869 28.7542ZM11.1541 29.2587L10.6758 29.1433C10.7319 28.7485 11.2007 27.945 10.2741 27.945L10.0162 28.9951L9.48841 28.8963L10.0491 26.3754C11.4195 26.5245 11.5394 26.9055 11.5666 27.3145C11.5125 27.6318 11.4279 27.8532 11.1543 27.9075C11.4745 28.1978 11.1581 28.8063 11.1541 29.2587ZM8.1162 26.4352C7.98437 26.6099 7.72048 27.2203 7.68228 27.7068C7.64165 28.2223 8.1374 28.1138 8.26084 28.0536C8.36043 28.0052 8.43441 27.5912 8.43441 27.5912L8.08727 27.4756L8.20299 27.129L8.98427 27.3891L8.6082 28.6898L8.28999 28.6029L8.31892 28.4006C7.92938 28.5779 7.21634 28.4449 7.13265 27.996C7.04895 27.6353 7.30246 26.5417 7.71121 26.0308C8.10847 25.534 9.07635 26.0196 9.09998 26.3198C9.12339 26.6189 9.00524 26.9556 9.00524 26.9556L8.64088 26.887C8.64088 26.887 8.66319 26.7789 8.69499 26.6086C8.72855 26.4281 8.25753 26.2474 8.1162 26.4352ZM15.2208 28.5521L15.1276 29.6702L14.7392 29.6547L14.879 26.9997C15.8491 27.0198 16.4051 27.1539 16.3865 27.8382C16.3287 28.7732 15.5708 28.5629 15.2208 28.5521ZM16.1878 24.3593H15.5379C15.4803 22.0601 15.9228 17.8547 14.7136 14.7598C13.7974 12.4136 11.4787 11.3583 10.9648 9.46303C10.1513 6.46322 11.5359 3.21743 16.1878 2.96749C20.2207 3.38112 21.4598 6.49146 20.7719 9.38736C19.5892 12.2828 18.4062 11.8668 16.9335 14.751C15.7307 17.8428 16.1887 21.8933 16.1878 24.3593ZM23.3953 28.6143L22.9446 28.7696L22.8046 26.0992L23.333 25.9596L24.6386 28.1641L24.281 28.397L23.8458 27.7762L23.3485 27.9624L23.3953 28.6143ZM18.1372 24.3593H17.6174C18.0458 18.4545 25.4733 19.7373 26.1521 17.6883C27.326 19.7197 26.904 21.4325 25.6782 22.3105C22.6321 24.4932 19.7113 20.6952 18.1372 24.3593ZM20.8934 27.3414L21.1266 28.568C21.2716 28.8506 21.3701 28.7983 21.5927 28.7699C21.8509 28.5832 21.797 28.4014 21.7482 28.1643L22.1989 28.1023C22.3164 28.9909 21.8935 29.0816 21.5773 29.1425C20.8991 29.191 20.7662 29.0591 20.5827 28.18C20.4758 27.4275 20.2912 26.6328 20.9245 26.4877C21.9641 26.3291 21.9028 26.7965 21.9968 27.1241L21.5461 27.202C21.4741 26.9205 21.3706 26.8089 21.142 26.8296C20.9338 26.9251 20.8483 27.0798 20.8934 27.3414ZM19.9454 28.6143C19.967 29.0011 19.8356 29.2578 19.5878 29.3441L18.531 29.5614L18.1114 26.9997C18.3283 26.9644 19.3915 26.5753 19.6499 27.2794C19.7773 27.7094 19.6453 27.8636 19.4944 28.0555C19.7804 28.1473 19.8769 28.3697 19.9454 28.6143ZM17.2314 15.7589C19.5859 9.13631 24.9733 10.3066 26.1682 13.2853C27.8052 19.2622 22.5341 17.623 19.1577 20.074C17.8815 21.1828 17.21 22.4548 17.2001 24.3831H16.6215C16.5868 20.4991 16.5239 17.7488 17.2314 15.7589Z" fill="#005FAF"/>
</svg>
