<svg width="16" height="24" viewBox="0 0 16 24" fill="none" xmlns="http://www.w3.org/2000/svg">
<path d="M9.07146 0.760795L9.07148 0.76081L9.07491 0.755329C9.07618 0.753313 9.07776 0.751767 9.07943 0.750684C9.07948 0.750648 9.07954 0.750613 9.07959 0.750578C9.08125 0.751109 9.0829 0.75202 9.0844 0.753362C9.08597 0.754756 9.08734 0.756582 9.08832 0.758796C9.08931 0.761016 9.08984 0.763521 9.08982 0.766112L9.0898 0.766112V0.771897V9.44418V10.1942H9.8398L14.5104 10.1942L14.5126 10.1942C14.5148 10.1942 14.517 10.1947 14.519 10.1959L14.9012 9.55063L14.519 10.1959C14.5211 10.1972 14.523 10.1991 14.5245 10.2017L15.1828 9.84242L14.5245 10.2017C14.5259 10.2044 14.5267 10.2075 14.5266 10.2108C14.5265 10.2141 14.5255 10.2171 14.5239 10.2196L14.523 10.221L6.20022 23.2414L6.19897 23.2434C6.19709 23.2463 6.19454 23.2482 6.19202 23.2492C6.18954 23.2501 6.18691 23.2502 6.18438 23.2495C6.18183 23.2488 6.17924 23.2471 6.1772 23.2444C6.17522 23.2418 6.17394 23.2384 6.17381 23.2347V14.5582V13.8082H5.42381H0.763588C0.761587 13.8081 0.759526 13.8076 0.757581 13.8064C0.755532 13.8052 0.753575 13.8033 0.75214 13.8007C0.750701 13.798 0.749916 13.7949 0.750007 13.7917C0.750089 13.7888 0.750862 13.7861 0.752136 13.7838L9.07146 0.760795Z" stroke="#1D1E25" stroke-width="1.5"/>
</svg>
