<svg width="24" height="24" viewBox="0 0 24 24" fill="none" xmlns="http://www.w3.org/2000/svg">
<path d="M0.923077 8.30769C1.16786 8.30769 1.40275 8.21044 1.57582 8.03736C1.7489 7.86429 1.84615 7.62939 1.84615 7.38462V4.61538C1.84615 3.88083 2.13791 3.1766 2.65714 2.65714C3.17658 2.13791 3.88083 1.84615 4.61539 1.84615H7.38462C7.71449 1.84615 8.01922 1.67019 8.18405 1.38462C8.34889 1.09904 8.34889 0.747112 8.18405 0.461538C8.01922 0.175965 7.71448 0 7.38462 0H4.61539C3.3917 0.00144232 2.21866 0.488118 1.35349 1.35349C0.488123 2.21866 0.00142418 3.3917 0 4.61538V7.38462C0 7.62939 0.0972554 7.86429 0.27033 8.03736C0.443404 8.21044 0.678298 8.30769 0.923077 8.30769Z" fill="white"/>
<path d="M4.61539 24H7.38462C7.71449 24 8.01922 23.824 8.18405 23.5385C8.34889 23.2529 8.34889 22.901 8.18405 22.6154C8.01922 22.3298 7.71448 22.1538 7.38462 22.1538H4.61539C3.88083 22.1538 3.1766 21.8621 2.65714 21.3429C2.13791 20.8234 1.84615 20.1192 1.84615 19.3846V16.6154C1.84615 16.2855 1.67019 15.9808 1.38462 15.8159C1.09904 15.6511 0.747112 15.6511 0.461538 15.8159C0.175965 15.9808 0 16.2855 0 16.6154V19.3846C0.00144232 20.6083 0.488118 21.7813 1.35349 22.6465C2.21866 23.5119 3.3917 23.9986 4.61539 24Z" fill="white"/>
<path d="M24.0001 4.61539C23.9986 3.3917 23.5119 2.21866 22.6466 1.35349C21.7814 0.488123 20.6084 0.00142418 19.3847 0H16.6154C16.2856 0 15.9808 0.17596 15.816 0.461538C15.6512 0.747117 15.6512 1.09904 15.816 1.38462C15.9808 1.67019 16.2856 1.84615 16.6154 1.84615H19.3847C20.1192 1.84615 20.8235 2.13791 21.3429 2.65714C21.8622 3.17658 22.1539 3.88083 22.1539 4.61539V7.38462C22.1539 7.71449 22.3299 8.01922 22.6154 8.18405C22.901 8.34889 23.253 8.34889 23.5385 8.18405C23.8241 8.01922 24.0001 7.71448 24.0001 7.38462V4.61539Z" fill="white"/>
<path d="M16.6154 24H19.3847C20.6084 23.9986 21.7814 23.5119 22.6466 22.6465C23.5119 21.7813 23.9986 20.6083 24.0001 19.3846V16.6154C24.0001 16.2855 23.8241 15.9808 23.5385 15.8159C23.2529 15.6511 22.901 15.6511 22.6154 15.8159C22.3299 15.9808 22.1539 16.2855 22.1539 16.6154V19.3846C22.1539 20.1192 21.8622 20.8234 21.3429 21.3429C20.8235 21.8621 20.1192 22.1538 19.3847 22.1538H16.6154C16.2856 22.1538 15.9808 22.3298 15.816 22.6154C15.6512 22.901 15.6512 23.2529 15.816 23.5385C15.9808 23.824 16.2856 24 16.6154 24Z" fill="white"/>
<path d="M16.6152 4.61542H7.38441C6.64986 4.61542 5.94563 4.90717 5.42617 5.42641C4.90694 5.94585 4.61518 6.65009 4.61518 7.38465V10.1539H3.69211C3.36223 10.1539 3.0575 10.3298 2.89267 10.6154C2.72783 10.901 2.72783 11.2529 2.89267 11.5385C3.0575 11.8241 3.36224 12 3.69211 12H20.3075C20.6374 12 20.9421 11.8241 21.1069 11.5385C21.2718 11.2529 21.2718 10.901 21.1069 10.6154C20.9421 10.3298 20.6374 10.1539 20.3075 10.1539H19.3844V7.38465C19.3844 6.65009 19.0927 5.94586 18.5734 5.42641C18.054 4.90717 17.3497 4.61542 16.6152 4.61542Z" fill="white"/>
<path d="M7.38447 20.3077H16.6152C17.3498 20.3077 18.054 20.016 18.5735 19.4967C19.0927 18.9773 19.3845 18.273 19.3845 17.5385V13.8462C19.3845 13.6014 19.2872 13.3665 19.1141 13.1934C18.9411 13.0204 18.7062 12.9231 18.4614 12.9231H5.53831C5.29353 12.9231 5.05864 13.0204 4.88556 13.1934C4.71249 13.3665 4.61523 13.6014 4.61523 13.8462V17.5385C4.61523 18.273 4.90699 18.9773 5.42622 19.4967C5.94566 20.016 6.64991 20.3077 7.38447 20.3077Z" fill="white"/>
</svg>
