<svg width="19" height="18" viewBox="0 0 19 18" fill="none" xmlns="http://www.w3.org/2000/svg">
<path d="M11 1.5C11 0.671576 10.3284 2.86102e-06 9.5 2.86102e-06C8.67157 2.86102e-06 8 0.671576 8 1.5H11ZM8 1.6C8 2.42843 8.67157 3.1 9.5 3.1C10.3284 3.1 11 2.42843 11 1.6H8ZM11 8.5C11 7.67158 10.3284 7 9.5 7C8.67157 7 8 7.67158 8 8.5H11ZM8 8.6C8 9.42843 8.67157 10.1 9.5 10.1C10.3284 10.1 11 9.42843 11 8.6H8ZM11 15.5C11 14.6716 10.3284 14 9.5 14C8.67157 14 8 14.6716 8 15.5H11ZM8 15.6C8 16.4284 8.67157 17.1 9.5 17.1C10.3284 17.1 11 16.4284 11 15.6H8ZM19 1.5C19 0.671573 18.3284 0 17.5 0C16.6716 0 16 0.671573 16 1.5H19ZM16 1.6C16 2.42843 16.6716 3.1 17.5 3.1C18.3284 3.1 19 2.42843 19 1.6H16ZM19 8.5C19 7.67157 18.3284 7 17.5 7C16.6716 7 16 7.67157 16 8.5H19ZM16 8.6C16 9.42843 16.6716 10.1 17.5 10.1C18.3284 10.1 19 9.42843 19 8.6H16ZM19 15.5C19 14.6716 18.3284 14 17.5 14C16.6716 14 16 14.6716 16 15.5H19ZM16 15.6C16 16.4284 16.6716 17.1 17.5 17.1C18.3284 17.1 19 16.4284 19 15.6H16ZM3 1.5C3 0.671573 2.32843 0 1.5 0C0.671573 0 0 0.671573 0 1.5H3ZM0 1.6C0 2.42843 0.671573 3.1 1.5 3.1C2.32843 3.1 3 2.42843 3 1.6H0ZM3 8.5C3 7.67157 2.32843 7 1.5 7C0.671573 7 0 7.67157 0 8.5H3ZM0 8.6C0 9.42843 0.671573 10.1 1.5 10.1C2.32843 10.1 3 9.42843 3 8.6H0ZM3 15.5C3 14.6716 2.32843 14 1.5 14C0.671573 14 0 14.6716 0 15.5H3ZM0 15.6C0 16.4284 0.671573 17.1 1.5 17.1C2.32843 17.1 3 16.4284 3 15.6H0ZM8 1.5V1.6H11V1.5H8ZM8 8.5V8.6H11V8.5H8ZM8 15.5V15.6H11V15.5H8ZM16 1.5V1.6H19V1.5H16ZM16 8.5V8.6H19V8.5H16ZM16 15.5V15.6H19V15.5H16ZM0 1.5V1.6H3V1.5H0ZM0 8.5V8.6H3V8.5H0ZM0 15.5V15.6H3V15.5H0Z" fill="#1D1E25"/>
</svg>
