<svg width="18" height="18" viewBox="0 0 18 18" fill="none" xmlns="http://www.w3.org/2000/svg">
<path fill-rule="evenodd" clip-rule="evenodd" d="M8.99994 18C9.62126 18 10.1249 17.4963 10.1249 16.875V10.125C10.1249 10.125 10.1249 10.125 10.1249 10.125H16.8749C17.4962 10.125 17.9999 9.62132 17.9999 9C17.9999 8.37868 17.4962 7.875 16.8749 7.875H10.1249C10.1249 7.875 10.1249 7.875 10.1249 7.875V1.125C10.1249 0.50368 9.62126 0 8.99994 0C8.37862 0 7.87495 0.50368 7.87495 1.125V7.875H1.12499C0.503676 7.875 0 8.37868 0 9C0 9.62132 0.503676 10.125 1.12499 10.125H7.87495V16.875C7.87495 17.4963 8.37862 18 8.99994 18Z" fill="white"/>
</svg>
