<svg width="17" height="21" viewBox="0 0 17 21" fill="none" xmlns="http://www.w3.org/2000/svg">
<path d="M8.33672 20.25C9.43672 20.25 10.3367 19.35 10.3367 18.25V17.25L6.33672 17.2505L6.33672 18.25C6.33672 18.7804 6.54744 19.2891 6.92251 19.6642C7.29758 20.0393 7.80629 20.25 8.33672 20.25ZM14.3367 14.25V9.25C14.3367 6.18 12.6967 3.61 9.83672 2.93V2.25C9.83672 1.42 9.16672 0.75 8.33672 0.75C7.50672 0.75 6.83672 1.42 6.83672 2.25V2.93C3.96672 3.61 2.33672 6.17 2.33672 9.25V14.25L1.04672 15.54C0.416721 16.17 0.856721 17.25 1.74672 17.25H14.9167C15.8067 17.25 16.2567 16.17 15.6267 15.54L14.3367 14.25Z" stroke="#1D1E25" stroke-width="1.5"/>
</svg>
