<svg width="128" height="32" viewBox="0 0 128 32" fill="none" xmlns="http://www.w3.org/2000/svg">
<circle cx="16" cy="16" r="16" fill="white"/>
<path d="M15.9999 22.6668C19.6818 22.6668 22.6666 19.6821 22.6666 16.0002C22.6666 12.3183 19.6818 9.3335 15.9999 9.3335C12.318 9.3335 9.33325 12.3183 9.33325 16.0002C9.33325 19.6821 12.318 22.6668 15.9999 22.6668Z" stroke="#1D1E25" stroke-width="1.5" stroke-linecap="round" stroke-linejoin="round"/>
<path d="M9.33325 16H22.6666" stroke="#1D1E25" stroke-width="1.5" stroke-linecap="round" stroke-linejoin="round"/>
<path d="M15.9999 9.3335C17.6674 11.1591 18.6151 13.5282 18.6666 16.0002C18.6151 18.4721 17.6674 20.8413 15.9999 22.6668C14.3324 20.8413 13.3848 18.4721 13.3333 16.0002C13.3848 13.5282 14.3324 11.1591 15.9999 9.3335V9.3335Z" stroke="#1D1E25" stroke-width="1.5" stroke-linecap="round" stroke-linejoin="round"/>
<circle cx="64" cy="16" r="16" fill="white"/>
<path d="M58.6666 10.6665H69.3333C70.0666 10.6665 70.6666 11.2665 70.6666 11.9998V19.9998C70.6666 20.7332 70.0666 21.3332 69.3333 21.3332H58.6666C57.9333 21.3332 57.3333 20.7332 57.3333 19.9998V11.9998C57.3333 11.2665 57.9333 10.6665 58.6666 10.6665Z" stroke="#1D1E25" stroke-width="1.5" stroke-linecap="round" stroke-linejoin="round"/>
<path d="M70.6666 12L63.9999 16.6667L57.3333 12" stroke="#1D1E25" stroke-width="1.5" stroke-linecap="round" stroke-linejoin="round"/>
<circle cx="112" cy="16" r="16" fill="white"/>
<path d="M118.667 19.2802V21.2802C118.667 21.4659 118.629 21.6497 118.555 21.8198C118.481 21.9899 118.372 22.1426 118.235 22.2681C118.098 22.3937 117.936 22.4892 117.761 22.5487C117.585 22.6082 117.398 22.6303 117.213 22.6136C115.162 22.3907 113.191 21.6897 111.46 20.5669C109.849 19.5433 108.484 18.1777 107.46 16.5669C106.333 14.8277 105.632 12.8476 105.413 10.7869C105.397 10.6025 105.419 10.4167 105.478 10.2413C105.537 10.0659 105.632 9.90469 105.757 9.76797C105.881 9.63126 106.033 9.52203 106.203 9.44724C106.372 9.37245 106.555 9.33374 106.74 9.33356H108.74C109.064 9.33038 109.377 9.44495 109.623 9.65592C109.868 9.86689 110.028 10.1599 110.073 10.4802C110.158 11.1203 110.314 11.7487 110.54 12.3536C110.63 12.5922 110.649 12.8515 110.596 13.1008C110.543 13.3501 110.419 13.579 110.24 13.7602L109.393 14.6069C110.342 16.2759 111.724 17.6579 113.393 18.6069L114.24 17.7602C114.421 17.581 114.65 17.4575 114.899 17.4043C115.149 17.3511 115.408 17.3705 115.647 17.4602C116.252 17.6859 116.88 17.8425 117.52 17.9269C117.844 17.9726 118.14 18.1357 118.351 18.3852C118.562 18.6348 118.675 18.9533 118.667 19.2802Z" stroke="#1D1E25" stroke-width="1.5" stroke-linecap="round" stroke-linejoin="round"/>
</svg>
