<svg width="19" height="21" viewBox="0 0 19 21" fill="none" xmlns="http://www.w3.org/2000/svg">
<path fill-rule="evenodd" clip-rule="evenodd" d="M6.09592 12.7158C5.79822 12.4227 5.35362 12.337 4.96832 12.4985C4.70846 12.5927 4.50379 12.7974 4.40961 13.0572C4.22485 13.4905 4.35599 13.9938 4.72866 14.2818C5.10133 14.5699 5.62148 14.5699 5.99415 14.2818C6.36682 13.9938 6.49796 13.4905 6.3132 13.0572C6.26085 12.9318 6.18736 12.8163 6.09592 12.7158ZM14.3731 12.7158C13.9582 12.3329 13.3188 12.3329 12.904 12.7158C12.8125 12.8164 12.739 12.9319 12.6867 13.0573C12.5215 13.4422 12.6076 13.889 12.9039 14.185C13.0044 14.2764 13.12 14.3499 13.2454 14.4023C13.4958 14.5127 13.7811 14.5127 14.0315 14.4023C14.1568 14.3497 14.2723 14.2762 14.373 14.185C14.6693 13.889 14.7554 13.4423 14.5903 13.0574C14.538 12.9319 14.4645 12.8164 14.3731 12.7158ZM17.0626 17.4806C18.5554 16.2907 19.2662 14.3718 18.9088 12.4965L17.3568 4.21937C16.8977 1.77332 14.7622 0.000725057 12.2734 0H6.72637C4.23763 0.000748702 2.10208 1.77336 1.64306 4.21941L0.0910934 12.4966C-0.266358 14.3718 0.444448 16.2908 1.93727 17.4807L0.491243 18.9268C0.225945 19.1873 0.120874 19.5702 0.216027 19.9296C0.31118 20.2891 0.591919 20.5698 0.951373 20.665C1.31083 20.7601 1.6937 20.6551 1.95423 20.3898L3.88813 18.4559C4.30816 18.5655 4.74031 18.6218 5.1744 18.6236H13.8254C14.2595 18.6218 14.6916 18.5655 15.1116 18.4559L17.0456 20.3898C17.4506 20.7875 18.1005 20.7846 18.502 20.3832C18.9034 19.9817 18.9063 19.3318 18.5086 18.9268L17.0626 17.4806ZM3.67598 4.60135C3.95195 3.13382 5.23312 2.07035 6.72637 2.06929H12.2734C13.7667 2.07035 15.0479 3.13382 15.3238 4.60135L15.6825 6.51434C14.1198 8.29254 11.8672 9.31181 9.49991 9.31181C7.13263 9.31181 4.87997 8.29254 3.31728 6.51434L3.67598 4.60135ZM16.213 15.4328C15.6244 16.1442 14.7488 16.5555 13.8254 16.5543H5.1744C4.2512 16.554 3.37603 16.1428 2.78647 15.4324C2.19691 14.7219 1.95412 13.786 2.12401 12.8785L2.8597 8.95477C6.69545 12.1899 12.3044 12.1899 16.1401 8.95477L16.8758 12.8785C17.0472 13.7862 16.8041 14.723 16.213 15.4328Z" fill="#C1C7D0"/>
</svg>
