<svg width="180" height="180" viewBox="0 0 180 180" fill="none" xmlns="http://www.w3.org/2000/svg">
<path d="M94.2874 0H111.429V8.57054H102.858V17.1411H85.7143V42.8591H68.5732V34.286H77.1438V8.57054H94.2874V0Z" fill="#1D1E25"/>
<path d="M0 0V60.0009H60.0009V0H0ZM51.4284 51.4284H8.57247V8.57247H51.4284V51.4284Z" fill="#1D1E25"/>
<path d="M120.002 0V60.0009H180V0H120.002ZM171.427 51.4284H128.574V8.57247H171.43V51.4284H171.427Z" fill="#1D1E25"/>
<path d="M17.1416 17.1411H42.8571V42.8566H17.1416V17.1411Z" fill="#1D1E25"/>
<path d="M137.14 17.1411H162.856V42.8566H137.14V17.1411Z" fill="#1D1E25"/>
<path d="M94.2876 25.7155H102.858V34.286H94.2876V25.7155Z" fill="#1D1E25"/>
<path d="M102.857 34.2867H111.428V68.5733H102.857V51.4284H94.2865V60.0015H85.7134V42.8604H102.857V34.2867Z" fill="#1D1E25"/>
<path d="M68.5732 51.4284H77.1437V60.0015H85.7142V68.5733H77.1437V85.7144H85.7142V77.1439H94.2874V68.5733H102.858V94.2875H85.7142V102.858H77.1437V94.2875H68.5732V77.1439H51.4282V68.5733H68.5732V51.4284Z" fill="#1D1E25"/>
<path d="M17.1416 68.5733H34.2827V77.1464H17.1416V68.5733Z" fill="#1D1E25"/>
<path d="M111.426 68.5733H128.571V77.1438H120V85.7144H111.426V68.5733Z" fill="#1D1E25"/>
<path d="M137.14 68.5733H145.713V77.1464H137.14V68.5733Z" fill="#1D1E25"/>
<path d="M0 77.1426H17.1411V85.7131H25.7155V94.2862H17.1411V102.857H8.57054V85.7131H0V77.1426Z" fill="#1D1E25"/>
<path d="M34.2866 77.1426H51.4277V85.7131H42.8572V94.2862H51.4277V102.857H34.2866V77.1426Z" fill="#1D1E25"/>
<path d="M145.712 77.1426H154.287V85.7131H162.857V111.427H154.287V102.857H137.139V111.427H128.571V94.2862H145.712V77.1426Z" fill="#1D1E25"/>
<path d="M51.4282 85.7118H59.9988V94.2849H51.4282V85.7118Z" fill="#1D1E25"/>
<path d="M171.427 85.7118H180V94.2849H171.427V85.7118Z" fill="#1D1E25"/>
<path d="M60.0009 94.2875H68.5727V111.429H51.4277V102.858H60.0009V94.2875Z" fill="#1D1E25"/>
<path d="M102.857 94.2875H111.43V102.858H102.857V94.2875Z" fill="#1D1E25"/>
<path d="M0 102.857H8.57054V111.43H0V102.857Z" fill="#1D1E25"/>
<path d="M17.1416 102.857H25.7121V111.43H17.1416V102.857Z" fill="#1D1E25"/>
<path d="M85.7119 102.857H102.856V111.427H94.285V128.572H85.7119V145.713H77.1413V128.572H68.5708V111.427H77.1413V119.999H85.7119V102.857Z" fill="#1D1E25"/>
<path d="M111.426 102.857H119.999V111.43H111.426V102.857Z" fill="#1D1E25"/>
<path d="M171.427 102.857H180V111.43H171.427V102.857Z" fill="#1D1E25"/>
<path d="M102.857 111.426H111.43V128.567H102.857V111.426Z" fill="#1D1E25"/>
<path d="M145.712 111.426H154.286V128.567H145.712V111.426Z" fill="#1D1E25"/>
<path d="M162.857 111.426H171.428V119.997H162.857V111.426Z" fill="#1D1E25"/>
<path d="M128.571 119.998H137.139V128.572H145.712V145.713H171.425V154.283H137.138V171.426H128.57V154.283H120V162.858H111.425V171.426H120V179.999H77.1406V171.426H102.855V154.283H111.425V128.572H128.57L128.571 119.998Z" fill="#1D1E25"/>
<path d="M0 119.998V179.999H60.0009V119.998H0ZM51.4284 171.427H8.57247V128.574H51.4284V171.427Z" fill="#1D1E25"/>
<path d="M94.2876 128.571H102.858V137.141H94.2876V128.571Z" fill="#1D1E25"/>
<path d="M154.289 128.571H171.427V137.141H154.289V128.571Z" fill="#1D1E25"/>
<path d="M17.1416 137.14H42.8571V162.856H17.1416V137.14Z" fill="#1D1E25"/>
<path d="M171.427 137.14H180V145.713H171.427V137.14Z" fill="#1D1E25"/>
<path d="M68.5732 145.713H77.1438V154.283H85.7143V162.858H68.5732V145.713Z" fill="#1D1E25"/>
<path d="M85.7119 145.713H102.853V154.283H85.7119V145.713Z" fill="#1D1E25"/>
<path d="M154.289 162.858H162.859V171.428H154.289V162.858Z" fill="#1D1E25"/>
<path d="M171.427 162.858H180V171.428H171.427V162.858Z" fill="#1D1E25"/>
<path d="M137.14 171.427H145.713V180H137.14V171.427Z" fill="#1D1E25"/>
</svg>
