<svg width="16" height="16" viewBox="0 0 16 16" fill="none" xmlns="http://www.w3.org/2000/svg">
<path d="M0.883807 4.0988H1.61072V3.07236C1.61072 2.88093 1.73038 2.71781 1.89853 2.65413L7.8213 0.037822C7.93997 -0.0145207 8.06906 -0.010657 8.17907 0.037822L14.1241 2.66395C14.2901 2.73736 14.3891 2.90099 14.3891 3.07223L14.3897 4.09867H15.1166C15.362 4.09867 15.5611 4.29869 15.5611 4.54546V6.09708C15.5611 6.34371 15.3621 6.54387 15.1166 6.54387H13.4665V12.0031H14.4354C14.6808 12.0031 14.88 12.2031 14.88 12.4499V13.5548H15.5554C15.8008 13.5548 16 13.7548 16 14.0016V15.5532C16 15.7998 15.801 16 15.5554 16H0.444565C0.199156 16 0 15.8 0 15.5532V14.0016C0 13.755 0.199029 13.5548 0.444565 13.5548H1.12001V12.4499C1.12001 12.2032 1.31904 12.0031 1.56458 12.0031H2.53355V6.54387H0.883415C0.638006 6.54387 0.43885 6.34384 0.43885 6.09708V4.54546C0.43885 4.29882 0.637879 4.09867 0.883415 4.09867L0.883807 4.0988ZM8.00052 1.47066C8.61781 1.47066 9.12364 1.97902 9.12364 2.59941C9.12364 3.22129 8.61845 3.72816 8.00052 3.72816C7.38272 3.72816 6.87739 3.22043 6.87739 2.59941C6.87739 1.97902 7.38323 1.47066 8.00052 1.47066ZM8.00052 2.36411C7.86845 2.36411 7.7664 2.46668 7.7664 2.59941C7.7664 2.73002 7.87006 2.8347 8.00052 2.8347C8.13073 2.8347 8.23464 2.73089 8.23464 2.59941C8.23464 2.46668 8.13259 2.36411 8.00052 2.36411ZM13.9915 13.5546V12.8965H2.00982V13.5546H13.9915ZM15.1115 14.4481H0.889553V15.1063H15.1115V14.4481ZM12.578 12.0029V6.54371H11.8878V12.0029H12.578ZM10.9988 12.0029V6.54371H9.23453V12.0029H10.9988ZM8.34553 12.0029V6.54371H7.65532V12.0029H8.34553ZM6.76632 12.0029V6.54371H5.00235V12.0029H6.76632ZM4.11334 12.0029V6.54371H3.42313V12.0029H4.11334ZM14.6725 5.65038V4.99222H1.32831V5.65038H14.6725ZM2.49972 4.09876H13.5011V3.36333L8.00058 0.933352L2.50004 3.36333L2.49972 4.09876Z" fill="black"/>
</svg>
