<svg width="19" height="23" viewBox="0 0 19 23" fill="none" xmlns="http://www.w3.org/2000/svg">
<path d="M1.56984 2.75432H17.3413C17.6898 2.75432 18.0241 2.88595 18.2706 3.12026C18.5171 3.35456 18.6556 3.67235 18.6556 4.0037V21.4951C18.6556 21.8264 18.5171 22.1442 18.2706 22.3785C18.0241 22.6128 17.6898 22.7444 17.3413 22.7444H1.56984C1.22127 22.7444 0.886978 22.6128 0.640501 22.3785C0.394025 22.1442 0.255556 21.8264 0.255556 21.4951V4.0037C0.255556 3.67235 0.394025 3.35456 0.640501 3.12026C0.886978 2.88595 1.22127 2.75432 1.56984 2.75432ZM9.45556 7.75185C8.93567 7.75185 8.42747 7.8984 7.9952 8.17297C7.56293 8.44754 7.22602 8.83779 7.02707 9.29438C6.82812 9.75097 6.77607 10.2534 6.87749 10.7381C6.97892 11.2228 7.22926 11.6681 7.59688 12.0175C7.96449 12.367 8.43285 12.605 8.94275 12.7014C9.45264 12.7978 9.98116 12.7483 10.4615 12.5592C10.9418 12.3701 11.3523 12.0498 11.6411 11.6389C11.93 11.2279 12.0841 10.7448 12.0841 10.2506C12.0841 9.5879 11.8072 8.95233 11.3142 8.48372C10.8213 8.01511 10.1527 7.75185 9.45556 7.75185ZM13.3984 16.4975C13.3984 15.5035 12.983 14.5501 12.2436 13.8472C11.5041 13.1443 10.5013 12.7494 9.45556 12.7494C8.40984 12.7494 7.40696 13.1443 6.66753 13.8472C5.9281 14.5501 5.5127 15.5035 5.5127 16.4975V17.7469H13.3984V16.4975ZM14.0556 0.255556H11.427L10.1127 2.75432H12.7413L14.0556 0.255556ZM6.16984 2.75432H8.79841L7.48413 0.255556H4.85556L6.16984 2.75432Z" fill="black" stroke="#1D1E25" stroke-width="0.5" stroke-linecap="round" stroke-linejoin="round"/>
</svg>
