<svg width="32" height="22" viewBox="0 0 32 22" fill="none" xmlns="http://www.w3.org/2000/svg">
<path fill-rule="evenodd" clip-rule="evenodd" d="M9.75646 17.2013L9.69889 17.2599C8.77497 18.233 7.70526 18.7491 6.60398 18.7491C4.30484 18.7491 2.63528 16.9646 2.63528 14.5028C2.63528 12.0458 4.30484 10.2605 6.60398 10.2605C7.70526 10.2605 8.77497 10.7775 9.69889 11.7525L9.75646 11.8125L11.2352 9.96281L11.1957 9.91288C9.96679 8.40978 8.49036 7.67911 6.67594 7.67911C4.85641 7.67911 3.19102 8.31281 1.99178 9.4549C0.687605 10.693 0 12.4376 0 14.5033C0 16.5695 0.687605 18.3184 1.99178 19.5561C3.19102 20.7039 4.85595 21.3333 6.67594 21.3333C8.49036 21.3333 9.96679 20.6026 11.1957 19.099L11.2352 19.0525L9.75646 17.2013ZM12.7297 21.0803H15.3427V7.89226H12.7297V21.0803ZM25.5783 18.2133C24.8801 18.6521 24.2319 18.8734 23.6483 18.8734C22.8042 18.8734 22.4221 18.4125 22.4221 17.3861V10.3877H25.0843V7.90427H22.4221V3.80014L19.8616 5.21779V7.90427H17.6525V10.3877H19.8616V17.8331C19.8616 19.86 21.0232 21.2454 22.7592 21.2834C23.9362 21.3069 24.6461 20.944 25.0769 20.678L25.1034 20.6598L25.7315 18.1163L25.5783 18.2133ZM27.741 21.0803H30.3563V7.89226H27.741V21.0803Z" fill="#1C4882"/>
<path fill-rule="evenodd" clip-rule="evenodd" d="M31.8799 5.581C29.493 2.08501 25.5293 0 21.4965 0C17.4647 0 13.4997 2.08549 11.117 5.581L10.9944 5.76055H14.0006L14.0327 5.72311C16.0793 3.5416 18.7503 2.38651 21.4965 2.38651C24.2428 2.38651 26.9124 3.5416 28.9623 5.72311L28.9971 5.76055H32.0001L31.8799 5.581Z" fill="#CC2131"/>
</svg>
