<svg width="8" height="8" viewBox="0 0 8 8" fill="none" xmlns="http://www.w3.org/2000/svg">
<path d="M3.509 1.31909L1.07696 6.00568C1.02681 6.10591 1.00028 6.21955 1 6.3353C0.999721 6.45105 1.0257 6.56486 1.07536 6.66542C1.12501 6.76598 1.19661 6.84977 1.28304 6.90847C1.36946 6.96717 1.46769 6.99873 1.56796 7H6.43204C6.53231 6.99873 6.63054 6.96717 6.71696 6.90847C6.80339 6.84977 6.87499 6.76598 6.92464 6.66542C6.9743 6.56486 7.00028 6.45105 7 6.3353C6.99972 6.21955 6.97319 6.10591 6.92304 6.00568L4.491 1.31909C4.43981 1.22168 4.36774 1.14115 4.28174 1.08526C4.19573 1.02936 4.0987 1 4 1C3.9013 1 3.80427 1.02936 3.71826 1.08526C3.63226 1.14115 3.56019 1.22168 3.509 1.31909V1.31909Z" stroke="#FFC046" stroke-linecap="round" stroke-linejoin="round"/>
<path d="M4 3V4.33333" stroke="#FFC046" stroke-linecap="round" stroke-linejoin="round"/>
<path d="M4 5.66663H4.00222" stroke="#FFC046" stroke-linecap="round" stroke-linejoin="round"/>
</svg>
