<svg width="24" height="21" viewBox="0 0 24 21" fill="none" xmlns="http://www.w3.org/2000/svg">
<path d="M5.97423 15.7192H6.59921L4.27661 18.8978C4.2766 18.8979 4.27658 18.8979 4.27657 18.8979C3.86025 19.4675 3.29585 19.75 2.74782 19.75C1.76735 19.75 0.75 18.7422 0.75 17.2104V13.4756C2.14884 14.8613 3.96443 15.7192 5.97423 15.7192Z" stroke="#1D1E25" stroke-width="1.5"/>
<path d="M6.8351 13.5405H17.165C20.4699 13.5405 23.0358 10.6022 23.0358 7.14599C23.0358 3.68844 20.47 0.75 17.165 0.75H6.8351C3.53009 0.75 0.964294 3.68844 0.964294 7.14599C0.964294 10.6022 3.53021 13.5405 6.8351 13.5405Z" stroke="#1D1E25" stroke-width="1.5"/>
<path d="M6.5 4.5V9.5M4 7H9" stroke="#1D1E25" stroke-width="1.5"/>
<path d="M17.4008 15.7192H18.0258C20.0356 15.7192 21.8512 14.8613 23.25 13.4756V17.2104C23.25 18.7422 22.2326 19.75 21.2522 19.75C20.7041 19.75 20.1397 19.4675 19.7234 18.8979C19.7234 18.8979 19.7234 18.8979 19.7234 18.8978L17.4008 15.7192Z" stroke="#1D1E25" stroke-width="1.5"/>
<path d="M18 4.5C18 5.05228 17.5523 5.5 17 5.5C16.4477 5.5 16 5.05228 16 4.5C16 3.94772 16.4477 3.5 17 3.5C17.5523 3.5 18 3.94772 18 4.5Z" fill="#1D1E25"/>
<path d="M18 8.5C18 9.05228 17.5523 9.5 17 9.5C16.4477 9.5 16 9.05228 16 8.5C16 7.94772 16.4477 7.5 17 7.5C17.5523 7.5 18 7.94772 18 8.5Z" fill="#1D1E25"/>
<path d="M20 6.5C20 7.05228 19.5523 7.5 19 7.5C18.4477 7.5 18 7.05228 18 6.5C18 5.94772 18.4477 5.5 19 5.5C19.5523 5.5 20 5.94772 20 6.5Z" fill="#1D1E25"/>
<path d="M16 6.5C16 7.05228 15.5523 7.5 15 7.5C14.4477 7.5 14 7.05228 14 6.5C14 5.94772 14.4477 5.5 15 5.5C15.5523 5.5 16 5.94772 16 6.5Z" fill="#1D1E25"/>
</svg>
