<svg width="16" height="16" viewBox="0 0 16 16" fill="none" xmlns="http://www.w3.org/2000/svg">
<path d="M1.48821 7.72691V13.9536C1.48859 14.4961 1.70437 15.0165 2.08811 15.4002C2.47183 15.7838 2.99211 15.9996 3.53479 16H12.4651C13.0078 15.9996 13.5281 15.7838 13.9118 15.4002C14.2955 15.0165 14.5113 14.4961 14.5117 13.9536V7.72691C14.939 7.60644 15.3154 7.34992 15.584 6.99635C15.8525 6.6429 15.9986 6.21147 16 5.76744V4.27902C15.9996 3.9338 15.8623 3.60277 15.6181 3.35859C15.3739 3.11453 15.0429 2.97711 14.6977 2.97673H14.3889L14.0324 1.55011C13.9224 1.10695 13.667 0.713407 13.3071 0.432453C12.9473 0.151388 12.5035 -0.00085741 12.0469 3.72603e-06H3.95312C3.49653 -0.000868381 3.05276 0.151375 2.69293 0.432453C2.333 0.713394 2.0776 1.10695 1.96759 1.55011L1.61115 2.97673H1.3023C0.957076 2.9771 0.626048 3.11452 0.381867 3.35859C0.13768 3.60278 0.000382728 3.9338 0 4.27902V5.76744C0.00137045 6.21147 0.14751 6.6429 0.415994 6.99635C0.684602 7.34992 1.06099 7.60645 1.4883 7.72691H1.48821ZM10.0463 14.8839L5.95338 14.8838V12.8373C5.95338 12.1061 6.34344 11.4305 6.97673 11.065C7.60989 10.6993 8.39002 10.6993 9.02318 11.065C9.65644 11.4305 10.0465 12.1062 10.0465 12.8373L10.0463 14.8839ZM13.3952 13.9536C13.3948 14.2002 13.2967 14.4365 13.1222 14.6109C12.948 14.7852 12.7115 14.8834 12.4649 14.8838H11.1626V12.8373C11.1626 11.7073 10.5598 10.6632 9.58115 10.0982C8.60264 9.53318 7.39691 9.53318 6.41841 10.0982C5.43977 10.6632 4.83691 11.7073 4.83691 12.8373V14.8839L3.53461 14.8838C3.28805 14.8834 3.05158 14.7852 2.87731 14.6109C2.70289 14.4365 2.60471 14.2002 2.60434 13.9536V7.72698C2.9598 7.62669 3.28135 7.43171 3.53462 7.16284C3.91821 7.57797 4.4578 7.81405 5.02306 7.81405C5.58831 7.81405 6.12777 7.57796 6.51136 7.16284C6.89495 7.57797 7.43453 7.81405 7.99979 7.81405C8.56505 7.81405 9.10463 7.57796 9.48822 7.16284C9.87181 7.57797 10.4113 7.81405 10.9765 7.81405C11.5418 7.81405 12.0814 7.57796 12.465 7.16284C12.7182 7.43169 13.0398 7.62667 13.3952 7.72698L13.3952 13.9536ZM4.09268 5.76741V4.09298H5.95312V5.76741C5.95312 6.09981 5.77584 6.40692 5.48804 6.57299C5.20025 6.73918 4.84567 6.73918 4.55776 6.57299C4.26997 6.40692 4.09268 6.09981 4.09268 5.76741ZM7.06941 5.76741V4.09298H8.92986L8.92998 5.76741C8.92998 6.09981 8.7527 6.40692 8.46478 6.57299C8.17698 6.73918 7.8224 6.73918 7.53462 6.57299C7.2467 6.40692 7.06941 6.09981 7.06941 5.76741H7.06941ZM10.0461 5.76741L10.0463 4.09298H11.9067V5.76741C11.9067 6.09981 11.7294 6.40692 11.4416 6.57299C11.1537 6.73918 10.7991 6.73918 10.5114 6.57299C10.2236 6.40692 10.0463 6.09981 10.0463 5.76741H10.0461ZM13.9532 4.09298H14.6973C14.7467 4.09298 14.794 4.11254 14.8289 4.14742C14.8638 4.18231 14.8833 4.22965 14.8833 4.27899V5.76741C14.8833 6.09981 14.706 6.40692 14.4182 6.57299C14.1305 6.73918 13.7759 6.73918 13.488 6.57299C13.2002 6.40692 13.0229 6.09981 13.0229 5.76741V4.09298H13.9532ZM3.04987 1.82316C3.09971 1.62145 3.2157 1.44206 3.37927 1.31397C3.54286 1.18577 3.74481 1.11613 3.95263 1.11625H12.0464C12.2539 1.116 12.4555 1.18527 12.6191 1.3131C12.7828 1.4408 12.8989 1.61958 12.9491 1.82091L13.2379 2.97669H2.76106L3.04987 1.82316ZM1.11579 4.27899C1.11579 4.17633 1.19901 4.09298 1.30179 4.09298H2.97623V5.76741C2.97623 6.09981 2.79894 6.40692 2.51115 6.57299C2.22323 6.73918 1.86865 6.73918 1.58087 6.57299C1.29307 6.40692 1.11579 6.09981 1.11579 5.76741V4.27899Z" fill="black"/>
</svg>
