<svg width="17" height="16" viewBox="0 0 17 16" fill="none" xmlns="http://www.w3.org/2000/svg">
<path d="M8.75 14.6666H13.4167C14.5212 14.6666 15.4167 13.7712 15.4167 12.6666V3.33325C15.4167 2.22868 14.5212 1.33325 13.4167 1.33325H2.75C1.64543 1.33325 0.75 2.22868 0.75 3.33325V12.6666C0.75 13.7712 1.64543 14.6666 2.75 14.6666V14.6666" stroke="black" stroke-width="1.5"/>
<path d="M10.0833 8C10.0833 6.89543 10.9787 6 12.0833 6H15.4166V10H12.0833C10.9787 10 10.0833 9.10457 10.0833 8V8Z" stroke="black" stroke-width="1.5"/>
<path d="M5.74984 10.6667L5.74984 15.3334M3.4165 13.0001H8.08317" stroke="black" stroke-width="1.5"/>
<circle cx="12.0832" cy="7.99992" r="0.666667" fill="black"/>
</svg>
