<svg width="19" height="21" viewBox="0 0 19 21" fill="none" xmlns="http://www.w3.org/2000/svg">
<path d="M16.2229 3.00564V2.00376C16.2229 0.901692 15.3212 0 14.2191 0H6.20408C5.34247 0 4.62111 0.541015 4.33057 1.30244L6.03376 3.00564H16.2229ZM14.2191 9.01692L16.2229 6.01128V5.0094H8.03752L14.2191 11.191V9.01692ZM0.292994 1.51284C0.200116 1.60553 0.12643 1.71562 0.0761544 1.83682C0.0258786 1.95802 0 2.08795 0 2.21916C0 2.35038 0.0258786 2.4803 0.0761544 2.6015C0.12643 2.72271 0.200116 2.8328 0.292994 2.92549L6.20408 8.83658V18.0338C6.20408 19.1359 7.10577 20.0376 8.20784 20.0376H12.2154C13.3174 20.0376 14.2191 19.1359 14.2191 18.0338V16.8616L17.2949 19.9374C17.4822 20.1247 17.7363 20.23 18.0012 20.23C18.2661 20.23 18.5202 20.1247 18.7075 19.9374C18.8949 19.7501 19.0001 19.496 19.0001 19.2311C19.0001 18.9662 18.8949 18.7121 18.7075 18.5248L1.70564 1.51284C1.61296 1.41996 1.50286 1.34627 1.38166 1.296C1.26046 1.24572 1.13053 1.21984 0.999319 1.21984C0.868104 1.21984 0.738178 1.24572 0.616977 1.296C0.495776 1.34627 0.385681 1.41996 0.292994 1.51284Z" fill="white"/>
</svg>
