<svg width="24" height="24" viewBox="0 0 24 24" fill="none" xmlns="http://www.w3.org/2000/svg">
<path d="M3 9.48908C3 9.18049 3.14247 8.88919 3.38606 8.69973L11.3861 2.47751C11.7472 2.19665 12.2528 2.19665 12.6139 2.47751L20.6139 8.69973C20.8575 8.88919 21 9.18049 21 9.48908V20V22H3L3 20V9.48908Z" fill="#1D1E25"/>
<path d="M21 22V23C21.5523 23 22 22.5523 22 22H21ZM3 22H2C2 22.2652 2.10536 22.5196 2.29289 22.7071C2.48043 22.8946 2.73478 23 3 23V22ZM3 20H4H3ZM20.6139 8.69973L21.2279 7.91038L20.6139 8.69973ZM4 9.48908L12 3.26686L10.7721 1.68816L2.77212 7.91038L4 9.48908ZM12 3.26686L20 9.48908L21.2279 7.91038L13.2279 1.68816L12 3.26686ZM20 9.48908V20H22V9.48908H20ZM20 20V22H22V20H20ZM21 21H3V23H21V21ZM4 22L4 20H2L2 22H4ZM4 20V9.48908H2V20H4ZM20 9.48908H22C22 8.8719 21.7151 8.28929 21.2279 7.91038L20 9.48908ZM12 3.26686L12 3.26686L13.2279 1.68816C12.5057 1.12643 11.4943 1.12643 10.7721 1.68816L12 3.26686ZM2.77212 7.91038C2.28495 8.28929 2 8.8719 2 9.48908H4V9.48908L2.77212 7.91038Z" fill="#1D1E25"/>
<path d="M10 23V18C10 16.8954 10.8954 16 12 16C13.1046 16 14 16.8954 14 18V23" fill="white"/>
<path d="M10 23V18C10 16.8954 10.8954 16 12 16V16C13.1046 16 14 16.8954 14 18V23H10Z" stroke="white" stroke-width="2" stroke-linecap="round" stroke-linejoin="round"/>
</svg>
