<svg width="24" height="25" viewBox="0 0 24 25" fill="none" xmlns="http://www.w3.org/2000/svg">
<path d="M23.3998 5.89355C22.8931 3.1734 20.7578 1.09337 18.0891 0.586688C16.0608 0.18675 14.0053 0 12.0037 0C9.94854 0 7.89341 0.186764 5.86486 0.586688C3.14266 1.09304 1.08754 3.19988 0.580379 5.86688C-0.19346 9.92042 -0.19346 14.0543 0.580379 18.0807C1.08764 20.8278 3.196 22.8808 5.86486 23.388C7.8936 23.8144 9.94873 24.0011 12.0037 24.0011C14.0586 24.0011 16.087 23.8144 18.1158 23.4144C20.838 22.8813 22.8931 20.8012 23.3998 18.1076C24.2004 14.0542 24.2004 9.92061 23.3996 5.89379L23.3998 5.89355ZM11.0203 6.20011C12.2545 6.20011 13.2548 7.08762 13.2548 8.60625C13.2548 10.1249 12.2545 11.3562 11.0203 11.3562C9.78644 11.3562 8.78583 10.1249 8.78583 8.60625C8.78583 7.08757 9.78644 6.20011 11.0203 6.20011ZM6.66651 16.4491C6.67079 16.2136 6.67581 15.7764 6.68176 15.7251C6.8994 13.7295 8.73041 12.8589 10.957 12.8589C10.9786 12.8589 10.9989 12.86 11.0203 12.8606C11.0417 12.86 11.0625 12.8589 11.0831 12.8589C13.3104 12.8589 15.1411 13.7296 15.3588 15.7251C15.3644 15.7766 15.3697 16.2136 15.374 16.4491C15.374 16.4491 11.4141 19.4896 6.66656 16.4491H6.66651ZM19.467 9.87025H17.4035V11.9336H16.6235V9.87025H14.5602V9.09027H16.6235L16.6233 7.02695H17.4033V9.09027H19.467L19.467 9.87025Z" fill="white"/>
</svg>
