<svg width="24" height="16" viewBox="0 0 24 16" fill="none" xmlns="http://www.w3.org/2000/svg">
<rect width="24" height="16" rx="2" fill="white"/>
<mask id="mask0_167_2652" style="mask-type:alpha" maskUnits="userSpaceOnUse" x="0" y="0" width="24" height="16">
<rect width="24" height="16" rx="2" fill="white"/>
</mask>
<g mask="url(#mask0_167_2652)">
<path fill-rule="evenodd" clip-rule="evenodd" d="M24 0H0V1.06667H24V0ZM24 2.1333H0V3.19997H24V2.1333ZM0 4.2666H24V5.33327H0V4.2666ZM24 6.3999H0V7.46657H24V6.3999ZM0 8.5332H24V9.59987H0V8.5332ZM24 10.667H0V11.7337H24V10.667ZM0 12.7998H24V13.8665H0V12.7998ZM24 14.9331H0V15.9998H24V14.9331Z" fill="#D02F44"/>
<rect width="10.2857" height="7.46667" fill="#46467F"/>
<g filter="url(#filter0_d_167_2652)">
<path fill-rule="evenodd" clip-rule="evenodd" d="M2.28605 1.60023C2.28605 1.89478 2.03021 2.13356 1.71462 2.13356C1.39903 2.13356 1.14319 1.89478 1.14319 1.60023C1.14319 1.30568 1.39903 1.06689 1.71462 1.06689C2.03021 1.06689 2.28605 1.30568 2.28605 1.60023ZM4.57167 1.60023C4.57167 1.89478 4.31583 2.13356 4.00024 2.13356C3.68465 2.13356 3.42881 1.89478 3.42881 1.60023C3.42881 1.30568 3.68465 1.06689 4.00024 1.06689C4.31583 1.06689 4.57167 1.30568 4.57167 1.60023ZM6.28598 2.13356C6.60157 2.13356 6.85741 1.89478 6.85741 1.60023C6.85741 1.30568 6.60157 1.06689 6.28598 1.06689C5.97039 1.06689 5.71455 1.30568 5.71455 1.60023C5.71455 1.89478 5.97039 2.13356 6.28598 2.13356ZM9.143 1.60023C9.143 1.89478 8.88717 2.13356 8.57158 2.13356C8.25598 2.13356 8.00015 1.89478 8.00015 1.60023C8.00015 1.30568 8.25598 1.06689 8.57158 1.06689C8.88717 1.06689 9.143 1.30568 9.143 1.60023ZM2.85766 3.20053C3.17325 3.20053 3.42909 2.96174 3.42909 2.66719C3.42909 2.37264 3.17325 2.13386 2.85766 2.13386C2.54207 2.13386 2.28623 2.37264 2.28623 2.66719C2.28623 2.96174 2.54207 3.20053 2.85766 3.20053ZM5.71424 2.66719C5.71424 2.96174 5.45841 3.20053 5.14282 3.20053C4.82722 3.20053 4.57139 2.96174 4.57139 2.66719C4.57139 2.37264 4.82722 2.13386 5.14282 2.13386C5.45841 2.13386 5.71424 2.37264 5.71424 2.66719ZM7.42856 3.20053C7.74415 3.20053 7.99999 2.96174 7.99999 2.66719C7.99999 2.37264 7.74415 2.13386 7.42856 2.13386C7.11297 2.13386 6.85713 2.37264 6.85713 2.66719C6.85713 2.96174 7.11297 3.20053 7.42856 3.20053ZM9.143 3.7336C9.143 4.02815 8.88717 4.26693 8.57158 4.26693C8.25598 4.26693 8.00015 4.02815 8.00015 3.7336C8.00015 3.43905 8.25598 3.20026 8.57158 3.20026C8.88717 3.20026 9.143 3.43905 9.143 3.7336ZM6.28598 4.26693C6.60157 4.26693 6.85741 4.02815 6.85741 3.7336C6.85741 3.43905 6.60157 3.20026 6.28598 3.20026C5.97039 3.20026 5.71455 3.43905 5.71455 3.7336C5.71455 4.02815 5.97039 4.26693 6.28598 4.26693ZM4.57167 3.7336C4.57167 4.02815 4.31583 4.26693 4.00024 4.26693C3.68465 4.26693 3.42881 4.02815 3.42881 3.7336C3.42881 3.43905 3.68465 3.20026 4.00024 3.20026C4.31583 3.20026 4.57167 3.43905 4.57167 3.7336ZM1.71464 4.26679C2.03023 4.26679 2.28607 4.02801 2.28607 3.73346C2.28607 3.43891 2.03023 3.20013 1.71464 3.20013C1.39905 3.20013 1.14321 3.43891 1.14321 3.73346C1.14321 4.02801 1.39905 4.26679 1.71464 4.26679ZM3.42909 4.8C3.42909 5.09456 3.17325 5.33334 2.85766 5.33334C2.54207 5.33334 2.28623 5.09456 2.28623 4.8C2.28623 4.50545 2.54207 4.26667 2.85766 4.26667C3.17325 4.26667 3.42909 4.50545 3.42909 4.8ZM5.14282 5.33334C5.45841 5.33334 5.71424 5.09456 5.71424 4.8C5.71424 4.50545 5.45841 4.26667 5.14282 4.26667C4.82722 4.26667 4.57139 4.50545 4.57139 4.8C4.57139 5.09456 4.82722 5.33334 5.14282 5.33334ZM7.99999 4.8C7.99999 5.09456 7.74415 5.33334 7.42856 5.33334C7.11297 5.33334 6.85713 5.09456 6.85713 4.8C6.85713 4.50545 7.11297 4.26667 7.42856 4.26667C7.74415 4.26667 7.99999 4.50545 7.99999 4.8ZM8.57158 6.40002C8.88717 6.40002 9.143 6.16124 9.143 5.86669C9.143 5.57214 8.88717 5.33336 8.57158 5.33336C8.25598 5.33336 8.00015 5.57214 8.00015 5.86669C8.00015 6.16124 8.25598 6.40002 8.57158 6.40002ZM6.85741 5.86669C6.85741 6.16124 6.60157 6.40002 6.28598 6.40002C5.97039 6.40002 5.71455 6.16124 5.71455 5.86669C5.71455 5.57214 5.97039 5.33336 6.28598 5.33336C6.60157 5.33336 6.85741 5.57214 6.85741 5.86669ZM4.00024 6.40002C4.31583 6.40002 4.57167 6.16124 4.57167 5.86669C4.57167 5.57214 4.31583 5.33336 4.00024 5.33336C3.68465 5.33336 3.42881 5.57214 3.42881 5.86669C3.42881 6.16124 3.68465 6.40002 4.00024 6.40002ZM2.28607 5.86676C2.28607 6.16131 2.03023 6.40009 1.71464 6.40009C1.39905 6.40009 1.14321 6.16131 1.14321 5.86676C1.14321 5.57221 1.39905 5.33343 1.71464 5.33343C2.03023 5.33343 2.28607 5.57221 2.28607 5.86676Z" fill="url(#paint0_linear_167_2652)"/>
</g>
</g>
<defs>
<filter id="filter0_d_167_2652" x="1.14319" y="1.06689" width="7.99976" height="6.33301" filterUnits="userSpaceOnUse" color-interpolation-filters="sRGB">
<feFlood flood-opacity="0" result="BackgroundImageFix"/>
<feColorMatrix in="SourceAlpha" type="matrix" values="0 0 0 0 0 0 0 0 0 0 0 0 0 0 0 0 0 0 127 0" result="hardAlpha"/>
<feOffset dy="1"/>
<feColorMatrix type="matrix" values="0 0 0 0 0 0 0 0 0 0 0 0 0 0 0 0 0 0 0.06 0"/>
<feBlend mode="normal" in2="BackgroundImageFix" result="effect1_dropShadow_167_2652"/>
<feBlend mode="normal" in="SourceGraphic" in2="effect1_dropShadow_167_2652" result="shape"/>
</filter>
<linearGradient id="paint0_linear_167_2652" x1="1.14319" y1="1.06689" x2="1.14319" y2="6.40009" gradientUnits="userSpaceOnUse">
<stop stop-color="white"/>
<stop offset="1" stop-color="#F0F0F0"/>
</linearGradient>
</defs>
</svg>
