<svg width="22" height="22" viewBox="0 0 22 22" fill="none" xmlns="http://www.w3.org/2000/svg">
<path d="M11 21.2326C8.28616 21.2326 5.68347 20.1545 3.76449 18.2355C1.84551 16.3165 0.767442 13.7138 0.767442 11V11C0.767442 8.28616 1.84551 5.68347 3.76449 3.76449C5.68347 1.84551 8.28616 0.767442 11 0.767442V0.767442C13.7138 0.767442 16.3165 1.84551 18.2355 3.76449C20.1545 5.68347 21.2326 8.28616 21.2326 11V11C21.2326 13.7138 20.1545 16.3165 18.2355 18.2355C16.3165 20.1545 13.7138 21.2326 11 21.2326V21.2326ZM11 5.31525C10.1005 5.31525 9.22126 5.58197 8.47338 6.08169C7.72549 6.58141 7.14259 7.29168 6.79838 8.12268C6.45416 8.95368 6.3641 9.86809 6.53958 10.7503C6.71506 11.6325 7.1482 12.4428 7.78422 13.0788C8.42024 13.7149 9.23058 14.148 10.1128 14.3235C10.995 14.4989 11.9094 14.4089 12.7404 14.0647C13.5714 13.7205 14.2816 13.1376 14.7814 12.3897C15.2811 11.6418 15.5478 10.7625 15.5478 9.86305C15.5478 8.6569 15.0687 7.50015 14.2158 6.64727C13.3629 5.79439 12.2062 5.31525 11 5.31525ZM13.4672 13.6718C12.7345 14.1535 11.8768 14.4102 11 14.4102C10.1232 14.4102 9.26549 14.1535 8.53282 13.6718C7.45016 14.0235 6.45553 14.6033 5.61607 15.3722C4.77661 16.141 4.11186 17.081 3.66667 18.1287C4.61172 19.0996 5.74019 19.8732 6.9866 20.4046C8.23301 20.9359 9.57254 21.2144 10.9275 21.224C12.2824 21.2335 13.6257 20.9738 14.8794 20.46C16.1332 19.9463 17.2724 19.1886 18.231 18.231L18.3333 18.1287C17.8881 17.081 17.2234 16.141 16.3839 15.3722C15.5445 14.6033 14.5498 14.0235 13.4672 13.6718V13.6718Z" stroke="#808D9E" stroke-width="1.5" stroke-linecap="round" stroke-linejoin="round"/>
</svg>
