<svg width="44" height="36" viewBox="0 0 44 36" fill="none" xmlns="http://www.w3.org/2000/svg">
<path d="M26.4263 0.371878C26.8241 0.121089 27.2998 -0.0951077 27.7754 0.0432584C28.1991 0.19892 28.3461 0.691849 28.3288 1.10695C28.3288 6.25244 28.3288 11.3979 28.3288 16.5434C33.1976 16.5434 38.0664 16.5434 42.9351 16.5434C43.3243 16.5434 43.7913 16.6731 43.9469 17.0709C44.1112 17.5466 43.8604 18.0222 43.6529 18.4373C42.3817 20.7809 41.0499 23.0985 39.6922 25.3988C39.2944 25.935 38.7582 26.4279 38.0923 26.5923C37.5388 26.722 36.9594 26.722 36.3973 26.7306C34.7802 26.7393 33.163 26.7306 31.5545 26.7306C30.854 26.7306 30.0584 26.7566 29.505 27.2495C29.0466 27.6905 29.0985 28.3997 29.2801 28.9618C29.6693 30.1552 30.4216 31.1756 30.9751 32.2912C30.4043 31.9107 29.8509 31.4956 29.3234 31.0546C27.6803 29.6017 26.1842 27.9932 24.9129 26.2031C21.1079 20.9279 19.1362 14.4679 18.7816 8.0166C18.7211 6.59835 19.3005 5.05038 20.5631 4.30666C22.5175 2.99219 24.4719 1.68636 26.4263 0.371878Z" fill="#00C89E"/>
<path d="M0.0674374 10.6894C0.266339 10.2657 0.776563 10.136 1.20896 10.1446C4.16653 10.1446 7.12411 10.1446 10.073 10.1446C10.5833 10.1533 11.1281 10.1792 11.5864 10.4214C12.0534 10.6722 12.408 11.0873 12.7712 11.4678C13.8522 12.6958 14.9245 13.9238 16.0055 15.1518C16.066 15.2123 16.1784 15.3593 16.2649 15.2382C16.8616 14.5983 17.4237 13.9238 18.0118 13.2752C18.5047 16.4143 19.7154 19.4152 21.3585 22.1219C23.4513 25.5465 26.2013 28.556 29.3232 31.0639C29.8507 31.5049 30.4042 31.9113 30.975 32.3005C31.3295 32.6897 31.6754 33.0961 32.0127 33.4939C32.2721 33.7966 32.4451 34.2203 32.2808 34.6095C32.1078 34.99 31.6495 35.1457 31.2603 35.1457C28.2768 35.1457 25.2933 35.1457 22.3011 35.1457C21.7996 35.1457 21.272 35.1284 20.8137 34.9035C20.3381 34.6527 19.9662 34.2463 19.603 33.8571C18.5393 32.6464 17.4756 31.4357 16.4206 30.225C16.3427 30.1299 16.239 30.0521 16.1438 29.9829C15.0196 31.2455 13.9127 32.5253 12.7971 33.7879C12.4253 34.1944 12.0534 34.6181 11.5605 34.8862C11.1021 35.1284 10.5746 35.1457 10.073 35.1457C7.08087 35.1457 4.09735 35.1457 1.10518 35.1457C0.672789 35.1543 0.162564 34.9727 0.0328459 34.5317C-0.0968723 34.0733 0.17986 33.6496 0.473888 33.3296C3.56983 29.7667 6.67442 26.2037 9.7963 22.6581C6.67442 19.0606 3.52659 15.4977 0.404705 11.9002C0.110677 11.5888 -0.10552 11.1305 0.0587895 10.6981L0.0674374 10.6894Z" fill="#002BBA"/>
</svg>
