<svg width="18" height="20" viewBox="0 0 18 20" fill="none" xmlns="http://www.w3.org/2000/svg">
<path d="M16.1538 0.769231H2.82051C2.5485 0.769231 2.28762 0.877289 2.09528 1.06963C1.90293 1.26198 1.79487 1.52285 1.79487 1.79487V18.2051C1.79487 18.4771 1.90293 18.738 2.09528 18.9304C2.28762 19.1227 2.5485 19.2308 2.82051 19.2308H16.1538M16.1538 0.769231C16.4259 0.769231 16.6867 0.877289 16.8791 1.06963C17.0714 1.26198 17.1795 1.52285 17.1795 1.79487V18.2051C17.1795 18.4771 17.0714 18.738 16.8791 18.9304C16.6867 19.1227 16.4259 19.2308 16.1538 19.2308M16.1538 0.769231H13.0769V19.2308H16.1538M0.769231 5.89744H2.82051M0.769231 10H2.82051M0.769231 14.1026H2.82051" stroke="#1D1E25" stroke-width="1.5" stroke-linecap="round" stroke-linejoin="round"/>
</svg>
