<svg width="24" height="24" viewBox="0 0 24 24" fill="none" xmlns="http://www.w3.org/2000/svg">
<path d="M2 4V3.25C1.58579 3.25 1.25 3.58579 1.25 4H2ZM22 4H22.75C22.75 3.58579 22.4142 3.25 22 3.25V4ZM2 4.75H22V3.25H2V4.75ZM21.25 4V18H22.75V4H21.25ZM20 19.25H4V20.75H20V19.25ZM2.75 18V4H1.25V18H2.75ZM4 19.25C3.30964 19.25 2.75 18.6904 2.75 18H1.25C1.25 19.5188 2.48122 20.75 4 20.75V19.25ZM21.25 18C21.25 18.6904 20.6904 19.25 20 19.25V20.75C21.5188 20.75 22.75 19.5188 22.75 18H21.25Z" fill="#808D9E"/>
<path d="M7 14H10" stroke="#808D9E" stroke-width="1.5" stroke-linecap="round" stroke-linejoin="round"/>
<path d="M7 9L17 9" stroke="#808D9E" stroke-width="1.5" stroke-linecap="round" stroke-linejoin="round"/>
</svg>
