<svg width="30" height="30" viewBox="0 0 30 30" fill="none" xmlns="http://www.w3.org/2000/svg">
<path fill-rule="evenodd" clip-rule="evenodd" d="M5.39394 4.39394H25.6061V10.6667C25.6061 11.0516 25.9181 11.3636 26.303 11.3636C26.688 11.3636 27 11.0516 27 10.6667V3.69697C27 3.31204 26.688 3 26.303 3H4.69697C4.31204 3 4 3.31204 4 3.69697V10.6667C4 11.0516 4.31204 11.3636 4.69697 11.3636C5.0819 11.3636 5.39394 11.0516 5.39394 10.6667V4.39394ZM5.39394 24.6061V18.3333C5.39394 17.9484 5.0819 17.6364 4.69697 17.6364C4.31204 17.6364 4 17.9484 4 18.3333V25.303C4 25.688 4.31204 26 4.69697 26H26.303C26.688 26 27 25.688 27 25.303V18.3333C27 17.9484 26.688 17.6364 26.303 17.6364C25.9181 17.6364 25.6061 17.9484 25.6061 18.3333V24.6061H5.39394ZM15.8485 7.18182H8.18182V10.6667H15.8485V7.18182ZM8.18182 19.0303H11.6667V22.5152H8.18182V19.0303ZM19.3333 19.0303H14.4545V22.5152H19.3333V19.0303ZM20.7273 19.0303H22.8182V22.5152H20.7273V19.0303ZM22.8182 7.18182H20.7273V10.6667H22.8182V7.18182ZM17.2424 7.18182H19.3333V10.6667H17.2424V7.18182ZM26.28 15.2425H4.84414C4.45921 15.2425 4.14717 14.9305 4.14717 14.5456C4.14717 14.1606 4.45921 13.8486 4.84414 13.8486H26.28C26.665 13.8486 26.977 14.1606 26.977 14.5456C26.977 14.9305 26.665 15.2425 26.28 15.2425Z" fill="black"/>
<mask id="mask0_76_1444" style="mask-type:alpha" maskUnits="userSpaceOnUse" x="4" y="3" width="23" height="23">
<path fill-rule="evenodd" clip-rule="evenodd" d="M5.39394 4.39394H25.6061V10.6667C25.6061 11.0516 25.9181 11.3636 26.303 11.3636C26.688 11.3636 27 11.0516 27 10.6667V3.69697C27 3.31204 26.688 3 26.303 3H4.69697C4.31204 3 4 3.31204 4 3.69697V10.6667C4 11.0516 4.31204 11.3636 4.69697 11.3636C5.0819 11.3636 5.39394 11.0516 5.39394 10.6667V4.39394ZM5.39394 24.6061V18.3333C5.39394 17.9484 5.0819 17.6364 4.69697 17.6364C4.31204 17.6364 4 17.9484 4 18.3333V25.303C4 25.688 4.31204 26 4.69697 26H26.303C26.688 26 27 25.688 27 25.303V18.3333C27 17.9484 26.688 17.6364 26.303 17.6364C25.9181 17.6364 25.6061 17.9484 25.6061 18.3333V24.6061H5.39394ZM15.8485 7.18182H8.18182V10.6667H15.8485V7.18182ZM8.18182 19.0303H11.6667V22.5152H8.18182V19.0303ZM19.3333 19.0303H14.4545V22.5152H19.3333V19.0303ZM20.7273 19.0303H22.8182V22.5152H20.7273V19.0303ZM22.8182 7.18182H20.7273V10.6667H22.8182V7.18182ZM17.2424 7.18182H19.3333V10.6667H17.2424V7.18182ZM26.28 15.2425H4.84414C4.45921 15.2425 4.14717 14.9305 4.14717 14.5456C4.14717 14.1606 4.45921 13.8486 4.84414 13.8486H26.28C26.665 13.8486 26.977 14.1606 26.977 14.5456C26.977 14.9305 26.665 15.2425 26.28 15.2425Z" fill="white"/>
</mask>
<g mask="url(#mask0_76_1444)">
<rect opacity="0.97" width="30" height="30" fill="black"/>
</g>
</svg>
