<svg width="87" height="96" viewBox="0 0 87 96" fill="none" xmlns="http://www.w3.org/2000/svg">
<path d="M8.25933 0.00073242C3.70475 0.00073242 0 3.71772 0 8.28604C0 12.8549 3.70534 16.5713 8.25933 16.5713C12.8139 16.5713 16.5187 12.8544 16.5187 8.28604C16.5192 3.71772 12.8139 0.00073242 8.25933 0.00073242ZM8.25933 13.2757C5.51737 13.2757 3.28592 11.0372 3.28592 8.28662C3.28592 5.53604 5.51737 3.29758 8.25933 3.29758C11.0013 3.29758 13.2327 5.53604 13.2327 8.28662C13.2327 11.0372 11.0025 13.2757 8.25933 13.2757Z" fill="#D5D5D5"/>
<path d="M30.0002 0.00073242C25.4468 0.00073242 21.7409 3.71772 21.7409 8.28604C21.7409 12.8555 25.4457 16.5719 30.0002 16.5719C34.5548 16.5719 38.2607 12.8549 38.2607 8.28662C38.2607 3.71772 34.5548 0.00073242 30.0002 0.00073242ZM30.0002 13.2757C27.2583 13.2757 25.0268 11.0372 25.0268 8.28662C25.0268 5.53545 27.2583 3.29758 30.0002 3.29758C32.7422 3.29758 34.9742 5.53604 34.9742 8.28662C34.9742 11.0372 32.7422 13.2757 30.0002 13.2757Z" fill="#D5D5D5"/>
<path d="M51.7411 16.5712C56.2945 16.5712 59.9999 12.8542 59.9999 8.28589C59.9999 3.71699 56.2951 0 51.7411 0C47.1865 0 43.4806 3.71699 43.4806 8.2853C43.4806 12.8548 47.1865 16.5712 51.7411 16.5712ZM51.7411 3.29684C54.4831 3.29684 56.7139 5.53531 56.7139 8.28589C56.7139 11.0365 54.4837 13.2749 51.7411 13.2749C48.998 13.2749 46.7671 11.0365 46.7671 8.28589C46.7671 5.53472 48.998 3.29684 51.7411 3.29684Z" fill="#D5D5D5"/>
<path d="M8.25933 21.8102C3.70475 21.8102 0 25.5272 0 30.0956C0 34.6645 3.70534 38.3809 8.25933 38.3809C12.8139 38.3809 16.5187 34.6639 16.5187 30.0956C16.5192 25.5272 12.8139 21.8102 8.25933 21.8102ZM8.25933 35.0852C5.51737 35.0852 3.28592 32.8467 3.28592 30.0961C3.28592 27.3456 5.51737 25.1071 8.25933 25.1071C11.0013 25.1071 13.2327 27.3456 13.2327 30.0961C13.2327 32.8467 11.0025 35.0852 8.25933 35.0852Z" fill="#D5D5D5"/>
<path d="M30.0002 21.8102C25.4468 21.8102 21.7409 25.5272 21.7409 30.0956C21.7409 34.6645 25.4457 38.3814 30.0002 38.3814C34.5548 38.3814 38.2607 34.6645 38.2607 30.0961C38.2607 25.5272 34.5548 21.8102 30.0002 21.8102Z" fill="#D5D5D5"/>
<path d="M51.7411 21.8102C47.1865 21.8102 43.4806 25.5272 43.4806 30.0956C43.4806 34.6645 47.1865 38.3809 51.7411 38.3809C56.2945 38.3809 59.9999 34.6639 59.9999 30.0956C59.9999 25.5272 56.2951 21.8102 51.7411 21.8102ZM51.7411 35.0852C48.998 35.0852 46.7671 32.8467 46.7671 30.0961C46.7671 27.3456 48.9986 25.1071 51.7411 25.1071C54.4831 25.1071 56.7139 27.3456 56.7139 30.0961C56.7139 32.8467 54.4837 35.0852 51.7411 35.0852Z" fill="#D5D5D5"/>
<path d="M8.25933 43.6195C3.70475 43.6195 0 47.3365 0 51.9048C0 56.4737 3.70534 60.1913 8.25933 60.1913C12.8139 60.1913 16.5193 56.4731 16.5193 51.9044C16.5193 47.3356 12.8139 43.6197 8.25933 43.6197V43.6195ZM8.25933 56.8939C5.51737 56.8939 3.28592 54.6554 3.28592 51.9042C3.28592 49.1536 5.51737 46.9152 8.25933 46.9152C11.0013 46.9152 13.2327 49.1536 13.2327 51.9042C13.2327 54.656 11.0025 56.8939 8.25933 56.8939Z" fill="#D5D5D5"/>
<path d="M30.0002 43.6195C25.4468 43.6195 21.7409 47.3365 21.7409 51.9048C21.7409 56.4737 25.4457 60.1907 30.0002 60.1907C34.5548 60.1907 38.2607 56.4731 38.2607 51.9042C38.2607 47.3353 34.5548 43.6195 30.0002 43.6195ZM30.0002 56.8939C27.2583 56.8939 25.0268 54.6554 25.0268 51.9042C25.0268 49.1536 27.2583 46.9152 30.0002 46.9152C32.7422 46.9152 34.9742 49.1536 34.9742 51.9042C34.9742 54.656 32.7422 56.8939 30.0002 56.8939Z" fill="#D5D5D5"/>
<path d="M51.7411 43.6195C47.1865 43.6195 43.4806 47.3365 43.4806 51.9048C43.4806 56.4737 47.1865 60.1913 51.7411 60.1913C56.2945 60.1913 59.9999 56.4737 59.9999 51.9048C59.9999 47.3365 56.2951 43.6195 51.7411 43.6195ZM51.7411 56.8939C48.998 56.8939 46.7671 54.6554 46.7671 51.9042C46.7671 49.1536 48.9986 46.9152 51.7411 46.9152C54.4831 46.9152 56.7139 49.1536 56.7139 51.9042C56.7139 54.656 54.4837 56.8939 51.7411 56.8939Z" fill="#D5D5D5"/>
<path d="M30.0002 65.4285C25.4468 65.4285 21.7409 69.1455 21.7409 73.7138C21.7409 78.2828 25.4457 81.9997 30.0002 81.9997C34.5548 81.9997 38.2607 78.2822 38.2607 73.7133C38.2607 69.1444 34.5548 65.4285 30.0002 65.4285ZM30.0002 78.7029C27.2583 78.7029 25.0268 76.4644 25.0268 73.7133C25.0268 70.9627 27.2583 68.7242 30.0002 68.7242C32.7422 68.7242 34.9742 70.9627 34.9742 73.7133C34.9742 76.465 32.7422 78.7029 30.0002 78.7029Z" fill="#D5D5D5"/>
<path d="M82.387 75.4257H82.273C80.9625 69.158 78.9682 63.0043 76.3472 57.1924C76.3472 57.1354 70.0795 44.942 70.0795 44.942C69.5097 43.8024 68.4841 42.9478 67.2305 42.5488C65.977 42.1499 64.5526 42.2639 63.3559 42.8907C62.3873 43.4035 61.5897 44.2012 61.1338 45.1699C60.564 44.0303 59.5384 43.2326 58.3418 42.8337C57.0882 42.4348 55.6638 42.5488 54.4672 43.1755C53.6125 43.6314 52.8718 44.3151 52.416 45.1697C51.7892 44.1441 50.8205 43.3464 49.681 43.0045C48.4274 42.6057 47.003 42.7196 45.8064 43.3464C44.8947 43.8022 44.1539 44.543 43.6412 45.4547L39.3678 37.0788C38.798 35.9393 37.7724 35.0846 36.5188 34.6857C33.8409 33.888 31.0489 35.3695 30.1942 38.0474C29.7954 39.244 29.9093 40.5545 30.4791 41.6941L42.5587 65.3974C40.1656 63.9729 37.0317 62.6054 34.4108 62.9474C33.0433 63.1183 31.7897 63.859 30.935 64.9986C30.1942 65.7393 29.7954 66.879 29.9663 68.0186C30.2512 70.5256 32.8153 73.1467 37.5446 75.7107L57.6586 88.417C56.8039 89.1007 56.519 90.2403 57.0318 91.2659L58.8551 94.8555C59.254 95.5963 59.9947 96.0521 60.7924 95.9951C61.1343 95.9951 61.5331 95.8811 61.818 95.7102L85.1801 83.2888C86.2627 82.719 86.7185 81.3515 86.1487 80.2688L84.3254 76.6792C83.9835 75.8815 83.1858 75.4257 82.3881 75.4257L82.387 75.4257Z" fill="white"/>
<path d="M82.387 75.4257H82.273C80.9625 69.158 78.9682 63.0043 76.3472 57.1924C76.3472 57.1354 70.0795 44.942 70.0795 44.942C69.5097 43.8024 68.4841 42.9478 67.2305 42.5488C65.977 42.1499 64.5526 42.2639 63.3559 42.8907C62.3873 43.4035 61.5897 44.2012 61.1338 45.1699C60.564 44.0303 59.5384 43.2326 58.3418 42.8337C57.0882 42.4348 55.6638 42.5488 54.4672 43.1755C53.6125 43.6314 52.8718 44.3151 52.416 45.1697C51.7892 44.1441 50.8205 43.3464 49.681 43.0045C48.4274 42.6057 47.003 42.7196 45.8064 43.3464C44.8947 43.8022 44.1539 44.543 43.6412 45.4547L39.3678 37.0788C38.798 35.9393 37.7724 35.0846 36.5188 34.6857C33.8409 33.888 31.0489 35.3695 30.1942 38.0474C29.7954 39.244 29.9093 40.5545 30.4791 41.6941L42.5587 65.3974C40.1656 63.9729 37.0317 62.6053 34.4108 62.9474C33.0433 63.1183 31.7897 63.859 30.935 64.9986C30.1942 65.7393 29.7954 66.879 29.9663 68.0186C30.2512 70.5256 32.8153 73.1467 37.5446 75.7107L57.6586 88.417C56.8039 89.1007 56.519 90.2403 57.0318 91.2659L58.8551 94.8555C59.254 95.5963 59.9947 96.0521 60.7924 95.9951C61.1343 95.9951 61.5331 95.8811 61.818 95.7102L85.1801 83.2888C86.2627 82.719 86.7185 81.3515 86.1487 80.2688L84.3254 76.6792C83.9835 75.8815 83.1858 75.4257 82.3881 75.4257L82.387 75.4257ZM59.8805 87.1065L59.7666 86.9925L38.741 73.7161L38.684 73.6591C33.4419 70.8101 32.4163 68.7589 32.3023 67.7903C32.1314 66.4228 33.6128 65.3403 34.8094 65.1693C36.3478 64.9414 38.0002 65.5681 39.3677 66.1949C40.8492 66.8787 42.2736 67.7333 43.6411 68.702C44.2109 69.1008 44.7237 69.6706 45.4074 69.8985C46.0342 70.0695 46.6609 69.6706 46.7749 69.0439C46.8319 68.8159 46.8319 68.5311 46.7179 68.3031C46.7179 68.3031 46.7179 68.2462 46.6609 68.2462L32.5301 40.555C31.9033 39.1875 32.4162 37.592 33.7837 36.9653C34.4104 36.6235 35.2082 36.5665 35.8919 36.7944C36.5187 37.0223 37.0885 37.4782 37.3734 38.0479L51.5042 65.7391C51.9031 66.3089 52.6438 66.4229 53.2136 66.024C53.6694 65.6822 53.8404 65.0554 53.6124 64.4857L45.6924 48.93C45.0656 47.5625 45.5785 45.9671 46.946 45.3404C47.5727 44.9985 48.3705 44.9416 49.0542 45.1695C49.681 45.3974 50.2508 45.8532 50.5926 46.423L58.5697 62.1493C58.8546 62.7191 59.5383 62.89 60.1081 62.6051C60.6209 62.3202 60.8488 61.6364 60.5639 61.1236L54.2393 48.6453C53.7265 47.3348 54.2393 45.7963 55.5497 45.1695C56.1765 44.8276 56.9743 44.7706 57.658 44.9985C58.2848 45.2265 58.8546 45.6823 59.1964 46.2521L65.4072 58.3887C66.0909 59.6992 68.4271 58.7306 67.7434 57.3061L63.2421 48.4744C62.6153 47.1069 63.1282 45.5115 64.4957 44.8848C65.1224 44.5429 65.9202 44.4859 66.6039 44.7138C67.2307 44.9418 67.8005 45.3976 68.1423 45.9674L74.1821 57.819C76.86 63.7449 78.8544 69.9557 80.165 76.2803L59.8805 87.1065Z" fill="black"/>
</svg>
