<svg width="42" height="42" viewBox="0 0 42 42" fill="none" xmlns="http://www.w3.org/2000/svg">
<rect width="42" height="42" rx="21" fill="#F7F7F7"/>
<path d="M17.6894 29.2741L17.6894 32.5772C17.6894 32.8106 17.8788 33 18.1122 33L26.5912 33C26.8245 33 27.014 32.8106 27.014 32.5772L27.014 29.274C27.014 29.0404 26.8246 28.8511 26.5912 28.8511L26.3406 28.8511C27.7787 26.81 27.6099 24.2293 27.6099 21.6898C27.6099 20.5 26.2754 19.7397 25.2505 20.3952C24.8704 19.5477 23.8069 19.2067 23.0039 19.7386C22.6253 18.9693 21.6948 18.6538 20.9344 19.0386L20.9344 15.5097C20.9343 13.497 17.8639 13.4965 17.8639 15.5097L17.8639 22.7215L17.2766 21.7025C16.3331 20.069 13.8547 21.0895 14.5746 22.9511C15.172 24.4942 16.7135 27.2045 18.3095 28.8511L18.1121 28.8511C17.8787 28.8511 17.6893 29.0406 17.6893 29.2741L17.6894 29.2741ZM25.26 28.8512L19.5506 28.8512C17.9089 27.5324 16.0373 24.3969 15.3603 22.6477C15.0149 21.756 16.1166 21.3813 16.5469 22.1255L17.9212 24.5047C18.1354 24.8776 18.7061 24.7225 18.7071 24.2949C18.7086 21.3669 18.7097 18.4382 18.7097 15.5102C18.7097 14.6 20.0887 14.5997 20.0887 15.5102L20.0887 23.1302C20.0887 23.6864 20.9344 23.6864 20.9344 23.1302L20.9344 20.4098C20.9344 19.5037 22.3142 19.5146 22.3142 20.4098L22.3142 23.7398C22.3142 24.2959 23.1596 24.2959 23.1596 23.7398L23.1596 21.0197C23.1596 20.116 24.539 20.1124 24.539 21.0197C24.539 22.1639 24.5386 23.3075 24.5386 24.4514C24.5386 25.0072 25.3843 25.0072 25.3843 24.4514C25.3843 23.5249 25.3848 22.5988 25.3848 21.6725C25.4073 20.7896 26.7641 20.7921 26.7641 21.6903C26.7641 24.0636 26.9216 26.9911 25.2597 28.8516L25.26 28.8512ZM18.5351 32.1543L18.5351 29.6969L26.1684 29.6969L26.1684 32.1543L18.5351 32.1543Z" fill="black"/>
<path d="M24.4141 13.839C24.5912 13.7973 24.726 13.6155 24.6696 13.4287L24.6363 13.2348C24.5949 13.0561 24.4066 12.9353 24.2295 12.977C24.0524 13.0187 23.9327 13.2087 23.974 13.3874L24.0083 13.5427C24.0487 13.76 24.2218 13.8726 24.4141 13.839L24.4141 13.839Z" fill="black"/>
<path d="M24.1012 14.688C24.0963 14.8809 24.2453 15.0392 24.4365 15.0442C24.6278 15.0492 24.7848 14.8988 24.7897 14.7059C24.7836 14.644 24.7927 14.5902 24.7946 14.513C24.7764 14.3272 24.6274 14.1689 24.4432 14.1873C24.2671 14.1904 24.1332 14.3336 24.1132 14.5184C24.1042 14.5722 24.1102 14.6342 24.1012 14.688L24.1012 14.688Z" fill="black"/>
<path d="M21.1166 10.17L21.2757 10.2359C21.4499 10.3099 21.6511 10.2225 21.7245 10.0468C21.7979 9.87114 21.7113 9.66811 21.5371 9.59407L21.3629 9.52003C21.1888 9.44599 20.9955 9.51816 20.907 9.68574C20.8185 9.85331 20.9052 10.0563 21.0713 10.1456L21.1166 10.17Z" fill="black"/>
<path d="M22.1136 10.7058L22.2415 10.794L22.2868 10.8184C22.4449 10.9229 22.6683 10.867 22.7568 10.6994C22.8453 10.5318 22.805 10.3145 22.6388 10.2253L22.4807 10.1208C22.3227 10.0162 22.1073 10.057 22.0037 10.2164C21.9152 10.384 21.9555 10.6013 22.1136 10.7058Z" fill="black"/>
<path d="M22.9444 11.4454L23.0561 11.5642C23.175 11.7063 23.3964 11.7275 23.5373 11.6076C23.6782 11.4877 23.6992 11.2643 23.5804 11.1223L23.4615 10.9802C23.3427 10.8381 23.1212 10.8168 22.9804 10.9367C22.8395 11.0566 22.8185 11.28 22.9444 11.4454C22.9373 11.4221 22.9444 11.4454 22.9444 11.4454L22.9444 11.4454Z" fill="black"/>
<path d="M23.6445 12.5062C23.7553 12.6635 23.9606 12.7152 24.1166 12.6035C24.2414 12.514 24.3067 12.3536 24.2493 12.2054L24.1616 12.0409C24.074 11.8765 23.8616 11.8014 23.6985 11.8899C23.5506 11.9864 23.4762 12.2007 23.579 12.3732L23.6445 12.5062Z" fill="black"/>
<path d="M16.2372 18.3438C16.1185 18.4952 16.1589 18.7124 16.3089 18.8321L16.467 18.9367L16.4972 18.9529C16.6553 19.0574 16.8787 19.0015 16.9672 18.8339C17.0708 18.6744 17.0154 18.449 16.8492 18.3598L16.7214 18.2715C16.5713 18.1517 16.3559 18.1925 16.2372 18.3438L16.2372 18.3438Z" fill="black"/>
<path d="M23.9426 15.7955C23.9004 15.9489 23.9649 16.1204 24.1159 16.2016L24.1763 16.234C24.3585 16.2929 24.5527 16.1821 24.5959 15.9902C24.613 15.9211 24.622 15.8673 24.6311 15.8135C24.6743 15.6216 24.5564 15.4409 24.3581 15.4125C24.1829 15.3771 24.0119 15.4807 23.9616 15.6493C23.9757 15.696 23.9516 15.7417 23.9426 15.7955L23.9426 15.7955Z" fill="black"/>
<path d="M23.7682 17.2275C23.8759 17.2071 23.9755 17.202 24.0903 17.205L24.1708 17.0526L24.1949 17.0069C24.2834 16.8394 24.2199 16.6292 24.0538 16.5399C23.8876 16.4507 23.6793 16.5147 23.5908 16.6823L23.5667 16.728L23.5103 16.8346C23.6221 16.9534 23.7027 17.0945 23.7682 17.2275Z" fill="black"/>
<path d="M15.3825 17.943L15.5014 18.0851C15.6202 18.2272 15.8417 18.2484 15.9906 18.1133C16.1395 17.9782 16.1525 17.77 16.0185 17.6198L15.9067 17.5011C15.796 17.3437 15.5745 17.3225 15.4336 17.4424C15.2777 17.5542 15.2566 17.7776 15.3755 17.9196L15.3825 17.943Z" fill="black"/>
<path d="M19.9228 9.86088C19.953 9.87711 19.9983 9.90146 20.0365 9.90246L20.1966 9.9298C20.3798 9.95002 20.5589 9.83115 20.587 9.63111C20.6151 9.43107 20.4892 9.26562 20.306 9.24539L20.1228 9.22517C19.9396 9.20494 19.7605 9.32382 19.7324 9.52386C19.7213 9.65485 19.8019 9.79594 19.9228 9.86087L19.9228 9.86088Z" fill="black"/>
<path d="M14.2936 15.6368L14.3349 15.8155C14.3763 15.9941 14.5646 16.1149 14.7417 16.0732C14.9188 16.0315 15.0385 15.8415 14.9972 15.6629L14.9629 15.5075C14.9296 15.3136 14.7564 15.201 14.5722 15.2193C14.388 15.2377 14.2683 15.4276 14.2865 15.6134C14.2865 15.6134 14.3016 15.6215 14.2936 15.6368Z" fill="black"/>
<path d="M14.6986 16.8517L14.7863 17.0161C14.8739 17.1806 15.0863 17.2556 15.2494 17.1672C15.4124 17.0788 15.4868 16.8645 15.3991 16.7001L15.3185 16.559C15.2389 16.3793 15.0265 16.3043 14.8635 16.3927C14.6854 16.473 14.611 16.6873 14.6986 16.8517Z" fill="black"/>
<path d="M18.736 9.86842C18.7964 9.90089 18.8649 9.91812 18.9343 9.89676L19.0954 9.88552C19.2796 9.86716 19.4214 9.7087 19.4113 9.50766C19.3931 9.32186 19.236 9.17877 19.0367 9.18901L18.8525 9.20737C18.6683 9.22573 18.5335 9.40754 18.5517 9.59335C18.5638 9.71721 18.6303 9.81161 18.736 9.86842Z" fill="black"/>
<path d="M14.3317 13.2516C14.2885 13.4435 14.4064 13.6242 14.5815 13.6596C14.7718 13.7032 14.9509 13.5843 14.9861 13.4076C14.9951 13.3538 15.0192 13.3081 15.0283 13.2543C15.0715 13.0624 14.9687 12.8898 14.7865 12.831C14.6194 12.7803 14.4252 12.8911 14.3749 13.0596C14.381 13.1216 14.3488 13.1825 14.3317 13.2516L14.3317 13.2516Z" fill="black"/>
<path d="M14.1845 14.5217C14.2027 14.7075 14.3517 14.8658 14.5359 14.8475C14.7121 14.8443 14.8459 14.7011 14.8659 14.5163C14.875 14.4625 14.8689 14.4005 14.8699 14.362C14.8748 14.169 14.7489 14.0036 14.5577 13.9986C14.3664 13.9936 14.2024 14.1206 14.1975 14.3135C14.1975 14.3135 14.1894 14.3288 14.2045 14.3369C14.1874 14.4059 14.1784 14.4597 14.1845 14.5217L14.1845 14.5217Z" fill="black"/>
<path d="M17.7816 9.47282L17.6115 9.53788C17.4334 9.61818 17.367 9.81722 17.4466 9.9969C17.5192 10.1532 17.6934 10.2273 17.8554 10.1774L18.0023 10.1195C18.1875 10.0626 18.277 9.8564 18.2125 9.68484C18.1561 9.49804 17.9517 9.40776 17.7816 9.47282Z" fill="black"/>
<path d="M17.1063 10.1271C16.9955 9.96974 16.7901 9.91805 16.6342 10.0298C16.5798 10.0593 16.5406 10.0969 16.4862 10.1263C16.3232 10.2148 16.2488 10.429 16.3365 10.5935C16.4241 10.7579 16.6214 10.8248 16.7996 10.7446C16.8227 10.7374 16.8539 10.7151 16.8851 10.6927C16.9243 10.6551 16.9706 10.6409 17.0099 10.6033C17.1578 10.5068 17.209 10.2996 17.1063 10.1271L17.1063 10.1271Z" fill="black"/>
<path d="M15.6411 10.8457C15.6018 10.8833 15.5546 10.9361 15.5153 10.9737C15.3815 11.1169 15.3987 11.3413 15.5488 11.461C15.6907 11.596 15.9132 11.5786 16.0319 11.4273C16.0631 11.4049 16.1023 11.3673 16.1416 11.3298C16.2754 11.1865 16.2733 10.9703 16.1313 10.8353C15.9893 10.7003 15.7749 10.7024 15.6411 10.8456L15.6411 10.8457Z" fill="black"/>
<path d="M14.8796 11.8837L14.8072 12.0208L14.7992 12.036C14.7106 12.2036 14.7742 12.4137 14.9403 12.503C15.1064 12.5923 15.3147 12.5282 15.4032 12.3606L15.4113 12.3454L15.4757 12.2235C15.5642 12.056 15.5158 11.8539 15.3577 11.7494C15.1916 11.6601 14.9681 11.7161 14.8796 11.8837Z" fill="black"/>
<path d="M22.512 15.1639C22.4688 15.3558 22.5867 15.5365 22.777 15.5801C22.9672 15.6237 23.1463 15.5048 23.1896 15.3129C23.2066 15.2438 23.2157 15.19 23.2247 15.1362C23.2448 14.9514 23.1038 14.7778 22.9205 14.7576C22.7373 14.7373 22.5814 14.8491 22.5311 15.0177C22.5221 15.0715 22.513 15.1253 22.5121 15.1639L22.512 15.1639Z" fill="black"/>
<path d="M22.5057 13.9282C22.5198 13.9749 22.5259 14.0368 22.5249 14.0754C22.5582 14.2693 22.7233 14.3972 22.9156 14.3636C23.1078 14.33 23.2346 14.1634 23.2013 13.9695C23.1952 13.9075 23.1891 13.8456 23.168 13.7756C23.1347 13.5816 22.9464 13.4609 22.7692 13.5026C22.5991 13.5677 22.4724 13.7342 22.5057 13.9282L22.5057 13.9282Z" fill="black"/>
<path d="M22.1257 12.9222L22.2063 13.0632C22.2939 13.2277 22.4913 13.2946 22.6613 13.2296C22.8244 13.1412 22.8907 12.9421 22.8262 12.7705L22.8192 12.7472L22.7315 12.5827C22.6519 12.4031 22.4546 12.3361 22.2765 12.4164C22.1134 12.5048 22.032 12.6958 22.1116 12.8755C22.1035 12.8907 22.1257 12.9222 22.1257 12.9222Z" fill="black"/>
<path d="M22.6702 15.8552C22.5041 15.7659 22.2958 15.83 22.2072 15.9976L22.1831 16.0433C22.4116 16.0878 22.6321 16.1476 22.8435 16.2613C22.8857 16.1079 22.8212 15.9364 22.6702 15.8552Z" fill="black"/>
<path d="M16.9789 16.9036C16.8451 17.0468 16.8623 17.2712 17.0124 17.3909L17.1624 17.5107L17.2228 17.5431L17.253 17.5594L17.2728 16.7877C17.1581 16.7847 17.0574 16.8284 16.9789 16.9036Z" fill="black"/>
<path d="M16.8595 16.1747L16.7941 16.0417C16.6833 15.8843 16.4699 15.8479 16.3219 15.9444C16.1891 16.0491 16.1389 16.2176 16.1963 16.3659L16.2839 16.5303C16.3947 16.6877 16.6082 16.7241 16.7641 16.6123C16.8969 16.5077 16.9552 16.3239 16.8595 16.1747Z" fill="black"/>
<path d="M21.4115 12.108L21.5313 12.2115C21.6814 12.3313 21.8807 12.321 22.0145 12.1778C22.1332 12.0265 22.123 11.8254 21.981 11.6904L21.831 11.5707C21.7041 11.4438 21.4817 11.4612 21.363 11.6126C21.2443 11.7639 21.2615 11.9883 21.4115 12.108L21.4115 12.108Z" fill="black"/>
<path d="M16.2632 12.5686L16.1747 12.7361C16.0862 12.9037 16.1497 13.1139 16.3158 13.2031C16.482 13.2924 16.6903 13.2283 16.7788 13.0608L16.8512 12.9237C16.9548 12.7642 16.8993 12.5388 16.7332 12.4496C16.5751 12.345 16.3749 12.3939 16.2632 12.5686Z" fill="black"/>
<path d="M16.0484 14.3696C16.2316 14.3898 16.4107 14.271 16.4388 14.0709L16.4659 13.9095C16.5091 13.7176 16.3913 13.5369 16.201 13.4933C16.0107 13.4497 15.8316 13.5686 15.7884 13.7605L15.7804 13.7758C15.7633 13.8448 15.7542 13.8986 15.7452 13.9525C15.7322 14.1606 15.8581 14.3261 16.0484 14.3696L16.0484 14.3696Z" fill="black"/>
<path d="M20.4149 11.5725L20.4602 11.5968L20.6273 11.6475C20.8015 11.7216 21.0028 11.6342 21.0762 11.4585C21.1496 11.2828 21.0629 11.0797 20.8888 11.0057L20.7065 10.9469C20.5324 10.8729 20.3311 10.9603 20.2577 11.136C20.1843 11.3116 20.2407 11.4984 20.4149 11.5725Z" fill="black"/>
<path d="M16.4646 15.1605C16.4504 15.1138 16.4444 15.0518 16.4303 15.0051C16.397 14.8112 16.2318 14.6833 16.0396 14.7169C15.8473 14.7505 15.7206 14.9171 15.7539 15.111C15.7599 15.173 15.766 15.2349 15.7872 15.3049C15.8205 15.4989 16.0088 15.6196 16.1859 15.5779C16.3862 15.5291 16.513 15.3625 16.4646 15.1604L16.4646 15.1605Z" fill="black"/>
<path d="M19.4083 11.4227L19.5613 11.4267C19.7526 11.4317 19.9095 11.2813 19.9145 11.0884C19.9194 10.8955 19.7704 10.7372 19.5791 10.7322C19.5177 10.7383 19.4493 10.7211 19.3879 10.7272C19.1886 10.7374 19.0467 10.8959 19.0649 11.0817C19.0831 11.2675 19.2241 11.441 19.4083 11.4227Z" fill="black"/>
<path d="M17.1383 11.572C17.0991 11.6096 17.0367 11.6543 16.9975 11.6919C16.8566 11.8118 16.8356 12.0352 16.9695 12.1854C17.0884 12.3275 17.3098 12.3487 17.4587 12.2136C17.498 12.176 17.5372 12.1384 17.5684 12.1161C17.7244 12.0043 17.7605 11.789 17.6497 11.6317C17.5389 11.4744 17.3255 11.4379 17.1696 11.5497C17.1464 11.5568 17.1464 11.5568 17.1384 11.5721L17.1383 11.572Z" fill="black"/>
<path d="M18.7186 11.15C18.6541 10.9784 18.4729 10.881 18.2877 10.938C18.2183 10.9593 18.172 10.9736 18.1176 11.003C17.9405 11.0447 17.8208 11.2347 17.8772 11.4215C17.9186 11.6001 18.1069 11.7209 18.2921 11.6639C18.3152 11.6568 18.3384 11.6497 18.3696 11.6274C18.4159 11.6131 18.4702 11.5836 18.5165 11.5694C18.6856 11.5429 18.7751 11.3368 18.7186 11.15L18.7186 11.15Z" fill="black"/>
</svg>
