<svg width="20" height="24" viewBox="0 0 20 24" fill="none" xmlns="http://www.w3.org/2000/svg">
<path d="M2.07903 3.26241H17.8359C18.1841 3.26241 18.5181 3.39392 18.7643 3.62801C19.0106 3.8621 19.1489 4.17959 19.1489 4.51064V21.9858C19.1489 22.3169 19.0106 22.6344 18.7643 22.8684C18.5181 23.1025 18.1841 23.234 17.8359 23.234H2.07903C1.73078 23.234 1.3968 23.1025 1.15055 22.8684C0.904299 22.6344 0.765957 22.3169 0.765957 21.9858V4.51064C0.765957 4.17959 0.904299 3.8621 1.15055 3.62801C1.3968 3.39392 1.73078 3.26241 2.07903 3.26241V3.26241ZM9.95745 8.25532C9.43805 8.25532 8.93031 8.40173 8.49844 8.67605C8.06658 8.95036 7.72998 9.34025 7.53121 9.79642C7.33244 10.2526 7.28044 10.7545 7.38177 11.2388C7.4831 11.7231 7.73321 12.1679 8.10049 12.517C8.46776 12.8662 8.93569 13.1039 9.44511 13.2003C9.95453 13.2966 10.4826 13.2471 10.9624 13.0582C11.4423 12.8692 11.8524 12.5493 12.141 12.1387C12.4296 11.7282 12.5836 11.2455 12.5836 10.7518C12.5836 10.0897 12.3069 9.45469 11.8144 8.98651C11.3219 8.51834 10.6539 8.25532 9.95745 8.25532ZM13.8967 16.9929C13.8967 15.9998 13.4816 15.0473 12.7429 14.345C12.0041 13.6428 11.0022 13.2482 9.95745 13.2482C8.9127 13.2482 7.91075 13.6428 7.172 14.345C6.43326 15.0473 6.01824 15.9998 6.01824 16.9929V18.2411H13.8967V16.9929ZM14.5532 0.765957H11.9271L10.614 3.26241H13.2401L14.5532 0.765957ZM6.67477 3.26241H9.30091L7.98784 0.765957H5.3617L6.67477 3.26241Z" stroke="#808D9E" stroke-width="1.5" stroke-linecap="round" stroke-linejoin="round"/>
</svg>
