<svg width="118" height="118" viewBox="0 0 118 118" fill="none" xmlns="http://www.w3.org/2000/svg">
<path d="M114.312 0H84.8124C83.4947 0 82.2773 0.702922 81.6189 1.84375C80.9604 2.98458 80.9604 4.39044 81.6189 5.53125C82.2773 6.67206 83.4947 7.375 84.8124 7.375H110.625V33.1875C110.625 34.5053 111.328 35.7226 112.469 36.3811C113.61 37.0396 115.015 37.0396 116.156 36.3811C117.297 35.7226 118 34.5052 118 33.1875V3.6875C118 2.70966 117.611 1.77131 116.92 1.07991C116.229 0.388515 115.29 0 114.312 0Z" fill="white"/>
<path d="M118 114.312V84.8124C118 83.4947 117.297 82.2773 116.156 81.6189C115.015 80.9604 113.61 80.9604 112.469 81.6189C111.328 82.2773 110.625 83.4947 110.625 84.8124V110.625H84.8124C83.4947 110.625 82.2773 111.328 81.6189 112.469C80.9604 113.61 80.9604 115.015 81.6189 116.156C82.2773 117.297 83.4947 118 84.8124 118H114.312C115.29 118 116.229 117.611 116.92 116.92C117.611 116.229 118 115.29 118 114.312Z" fill="white"/>
<path d="M3.6875 118H33.1875C34.5053 118 35.7226 117.297 36.3811 116.156C37.0396 115.015 37.0396 113.61 36.3811 112.469C35.7226 111.328 34.5052 110.625 33.1875 110.625H7.375V84.8124C7.375 83.4947 6.67208 82.2773 5.53125 81.6189C4.39042 80.9604 2.98456 80.9604 1.84375 81.6189C0.702943 82.2773 0 83.4947 0 84.8124V114.312C0 115.29 0.388515 116.229 1.07991 116.92C1.77131 117.611 2.70966 118 3.6875 118Z" fill="white"/>
<path d="M0 3.6875V33.1875C0 34.5053 0.702922 35.7226 1.84375 36.3811C2.98458 37.0396 4.39044 37.0396 5.53125 36.3811C6.67206 35.7226 7.375 34.5052 7.375 33.1875V7.375H33.1875C34.5053 7.375 35.7226 6.67208 36.3811 5.53125C37.0396 4.39042 37.0396 2.98456 36.3811 1.84375C35.7226 0.702943 34.5052 0 33.1875 0H3.6875C2.70966 0 1.77131 0.388515 1.07991 1.07991C0.388515 1.77131 0 2.70966 0 3.6875Z" fill="white"/>
<path d="M59 88.5001C50.429 88.5067 42.0418 86.0143 34.8648 81.3276C33.7619 80.6066 33.1272 79.3513 33.1997 78.0352C33.2729 76.7191 34.0425 75.542 35.2188 74.947C36.395 74.3519 37.8 74.4301 38.9029 75.1511C44.8868 79.0436 51.8709 81.1154 59.0088 81.1154C66.1468 81.1154 73.1315 79.0436 79.1148 75.1511C80.2185 74.4301 81.6227 74.3519 82.7989 74.947C83.9751 75.5421 84.7447 76.7191 84.818 78.0352C84.8912 79.3513 84.2558 80.6065 83.1528 81.3276C75.9713 86.0177 67.5772 88.51 59.0007 88.5001H59Z" fill="white"/>
<path d="M36.875 47.9374C35.8972 47.9374 34.9588 47.5489 34.2674 46.8575C33.576 46.1661 33.1875 45.2278 33.1875 44.2499V36.8749C33.1875 35.5572 33.8904 34.3398 35.0312 33.6814C36.1721 33.0229 37.5779 33.0229 38.7188 33.6814C39.8596 34.3398 40.5625 35.5572 40.5625 36.8749V44.2499C40.5625 45.2278 40.174 46.1661 39.4826 46.8575C38.7912 47.5489 37.8528 47.9374 36.875 47.9374Z" fill="white"/>
<path d="M81.125 47.9374C80.1472 47.9374 79.2088 47.5489 78.5174 46.8575C77.826 46.1661 77.4375 45.2278 77.4375 44.2499V36.8749C77.4375 35.5572 78.1404 34.3398 79.2812 33.6814C80.4221 33.0229 81.8279 33.0229 82.9688 33.6814C84.1096 34.3398 84.8125 35.5572 84.8125 36.8749V44.2499C84.8125 45.2278 84.424 46.1661 83.7326 46.8575C83.0412 47.5489 82.1028 47.9374 81.125 47.9374Z" fill="white"/>
<path d="M53.4687 65.0097C52.1509 65.0097 50.9336 64.3076 50.2751 63.1659C49.6166 62.0251 49.6166 60.6201 50.2751 59.4784C50.9336 58.3376 52.151 57.6347 53.4687 57.6347C54.4465 57.6347 55.3849 57.2461 56.0763 56.5547C56.7677 55.8634 57.1562 54.9258 57.1562 53.9472V44.2495C57.1562 42.9317 57.8591 41.7144 58.9999 41.0559C60.1408 40.3974 61.5466 40.3974 62.6874 41.0559C63.8283 41.7144 64.5312 42.9317 64.5312 44.2495V53.9472C64.5312 56.8816 63.3657 59.6948 61.2915 61.7699C59.2164 63.8442 56.4031 65.0097 53.4687 65.0097Z" fill="white"/>
</svg>
