<svg width="24" height="24" viewBox="0 0 24 24" fill="none" xmlns="http://www.w3.org/2000/svg">
<path d="M15.9351 0.253482C15.5711 0.254259 15.2075 0.265785 14.8442 0.285642C14.1865 0.321601 13.5293 0.39272 12.8788 0.500781C12.1726 0.61808 11.4708 0.774953 10.7804 0.969883C10.0291 1.18195 9.28407 1.42749 8.56167 1.73065C7.78029 2.05853 7.01981 2.44405 6.28286 2.87067C5.78766 3.15734 5.30442 3.47033 4.84805 3.82104C4.38986 4.17316 3.96154 4.56776 3.54619 4.97437C3.25084 5.26349 2.96673 5.56668 2.70219 5.88706C2.34913 6.3146 2.01692 6.76323 1.71366 7.23113C1.42647 7.67422 1.14953 8.12795 0.92978 8.61178C0.754497 8.99777 0.617971 9.40438 0.507778 9.81613C0.395711 10.2348 0.29938 10.6622 0.267237 11.0959C0.243807 11.412 0.246516 11.7348 0.303111 12.0462C0.348657 12.2969 0.443493 12.5368 0.543652 12.7693C0.678774 13.0829 0.847234 13.3808 1.02683 13.6687C1.23136 13.9965 1.45926 14.3092 1.70203 14.6069C2.05911 15.0446 2.43598 15.4667 2.8467 15.8489C3.22046 16.1967 3.63088 16.5001 4.04097 16.7993C4.52185 17.1501 5.01198 17.4888 5.52324 17.7885C5.93299 18.0286 6.36137 18.2316 6.78925 18.4339C7.27732 18.6646 7.79149 18.8341 8.2726 19.0805C8.43439 19.1633 8.59273 19.256 8.74315 19.3599C8.98769 19.5288 9.24419 19.6917 9.44263 19.9177C9.68044 20.1886 10.0208 20.8548 10.0208 20.8548L10.0218 20.8537C10.4779 22.2329 11.8108 23.2313 13.3852 23.2313C15.3359 23.2313 16.9172 21.6976 16.9172 19.8068C16.9172 18.0373 15.7641 16.7435 13.7564 16.4023L13.7585 16.4001C13.7585 16.4001 11.6481 15.9678 10.7084 15.697C9.93992 15.4755 9.17923 15.2146 8.44124 14.8985C7.81698 14.6312 7.20372 14.3286 6.62028 13.9737C6.0896 13.6509 5.51882 13.3553 5.10107 12.8836C4.60041 12.3182 4.05272 11.6506 3.99225 10.8808C3.92046 9.96665 4.43752 9.07174 4.92066 8.30795C5.59593 7.24043 6.5929 6.42161 7.57292 5.65864C8.38573 5.02584 9.27906 4.49392 10.2136 4.08724C11.6623 3.45682 13.1939 2.9957 14.7469 2.76979C15.5193 2.65745 16.3104 2.67153 17.0859 2.75648C18.051 2.86221 19.0537 2.96977 19.9323 3.40302C20.2096 3.53978 20.5783 3.6868 20.6549 3.99853C20.7401 4.34493 20.4522 4.6945 20.2572 4.98772C19.9297 5.4801 19.4645 5.86081 19.0038 6.21646C18.4265 6.66217 17.7859 7.0191 17.1344 7.3321C16.8939 7.44762 16.6518 7.60921 16.3874 7.61045C16.2641 7.61103 16.1439 7.51493 16.0372 7.44284C15.8842 7.33947 15.7215 7.15446 15.5731 7.04059C15.3026 6.83299 15.0751 6.66223 14.7596 6.53363C14.4295 6.39916 14.075 6.32658 13.7225 6.29298C13.394 6.26168 13.0582 6.26762 12.7339 6.33069C12.404 6.39485 12.0857 6.52512 11.7813 6.67336C11.4967 6.81191 11.2121 6.96669 10.9731 7.18015C10.6927 7.43058 10.4295 7.72295 10.2621 8.06732C10.1112 8.3775 10.0416 8.73327 10.0205 9.0809C10.0073 9.29739 10.011 9.52842 10.0933 9.72743C10.2023 9.99139 10.4153 10.1998 10.6239 10.3861C10.8204 10.5616 11.0531 10.6892 11.2865 10.8042C11.5293 10.9238 11.7856 11.0167 12.0461 11.0837C12.3459 11.1607 12.6546 11.2079 12.9629 11.2234C13.4612 11.2484 13.9621 11.2066 14.4578 11.1469C15.1274 11.0662 15.7981 10.9558 16.4476 10.7665C17.0065 10.6036 17.5466 10.3703 18.0754 10.12C18.4607 9.93764 18.8333 9.72687 19.1959 9.49894C19.5785 9.25839 19.9543 9.00223 20.3057 8.71379C20.6041 8.46895 20.8796 8.19405 21.1497 7.91534C21.448 7.60755 21.7397 7.29091 22.0054 6.95165C22.2669 6.61759 22.5091 6.26608 22.7291 5.90035C22.9569 5.5216 23.1763 5.13341 23.3442 4.72151C23.4904 4.36292 23.6157 3.98981 23.6818 3.60588C23.7248 3.35614 23.783 3.08944 23.7177 2.84511C23.6597 2.62853 23.509 2.44446 23.3558 2.28729C23.1229 2.04827 22.825 1.88817 22.5361 1.73057C21.963 1.41808 21.3556 1.17215 20.7394 0.969801C20.114 0.764471 19.468 0.630405 18.8224 0.512907C18.2281 0.404736 17.6279 0.323659 17.0258 0.285571C16.6627 0.262602 16.2989 0.252633 15.9349 0.253411L15.9351 0.253482Z" fill="#ED2423" stroke="#ED2423" stroke-width="0.272826"/>
<path d="M7.93777 14.6736C7.92151 14.8095 7.91245 14.9478 7.91245 15.0884C7.91245 16.9064 9.31522 18.3809 11.0448 18.3809C12.3198 18.3809 13.4163 17.5796 13.9049 16.4302C13.8554 16.4204 13.8057 16.4111 13.7551 16.4025L13.7572 16.4003C13.7572 16.4003 11.6468 15.968 10.7071 15.6972C9.93862 15.4757 9.17794 15.2148 8.43994 14.8987C8.27161 14.8267 8.10412 14.7512 7.93775 14.6736L7.93777 14.6736Z" fill="url(#paint0_radial_88_2634)"/>
<path d="M8.62128 1.7063C8.601 1.7147 8.58033 1.7222 8.56009 1.73069C7.77871 2.05857 7.01823 2.44409 6.28128 2.87071C5.78609 3.15738 5.30284 3.47037 4.84647 3.82109C4.38828 4.1732 3.95996 4.5678 3.54461 4.97441C3.53274 4.98604 3.52164 4.99823 3.5098 5.0099C4.06792 5.59714 4.8384 5.96027 5.6905 5.96027C7.3936 5.96027 8.77429 4.50897 8.77429 2.71876C8.77429 2.36502 8.72096 2.02495 8.62131 1.70628L8.62128 1.7063Z" fill="url(#paint1_radial_88_2634)"/>
<path d="M4.48992 4.10837C4.16328 4.38257 3.85047 4.67506 3.54464 4.97446C3.24928 5.26358 2.96521 5.56677 2.70063 5.88715C2.34757 6.3147 2.01537 6.76332 1.7121 7.23122C1.61431 7.38208 1.51764 7.53401 1.42409 7.68811C1.82195 8.0374 2.3348 8.24703 2.8937 8.24703C4.16011 8.24703 5.18622 7.16731 5.18622 5.83612C5.18622 5.15761 4.91917 4.54638 4.48991 4.10833L4.48992 4.10837Z" fill="url(#paint2_linear_88_2634)" stroke="url(#paint3_linear_88_2634)" stroke-width="0.238008"/>
<path d="M5.79938 4.48892C4.73809 4.48892 3.87822 5.39277 3.87822 6.50833C3.87822 7.29114 4.30222 7.96954 4.92161 8.30486C5.59199 7.24664 6.57846 6.43303 7.55069 5.67549C7.24887 4.97541 6.57819 4.48888 5.79938 4.48888V4.48892Z" fill="url(#paint4_linear_88_2634)" stroke="url(#paint5_linear_88_2634)" stroke-width="0.199459"/>
<path d="M3.95488 8.0962C2.22532 8.0962 0.822582 9.56958 0.822582 11.3876C0.822582 13.2056 2.22535 14.6801 3.95488 14.6801C4.82289 14.6801 5.60846 14.3083 6.17566 13.7087C5.78553 13.4743 5.40242 13.2256 5.09956 12.8836C4.59889 12.3182 4.0512 11.6506 3.99074 10.8808C3.91894 9.96668 4.436 9.07177 4.91914 8.30798C4.92824 8.2936 4.93736 8.27902 4.94657 8.26473C4.63486 8.1554 4.30155 8.09617 3.95487 8.09617L3.95488 8.0962Z" fill="url(#paint6_radial_88_2634)"/>
<path d="M2.25514 6.45376C2.06583 6.7066 1.88394 6.96555 1.7118 7.23114C1.42461 7.67423 1.14767 8.12796 0.927924 8.61179C0.752641 8.99778 0.616115 9.40439 0.505922 9.81615C0.393855 10.2349 0.297523 10.6622 0.26538 11.0959C0.241954 11.412 0.244656 11.7348 0.301255 12.0463C0.319782 12.1482 0.346383 12.2481 0.378266 12.3468C0.400649 12.3473 0.423289 12.3479 0.445786 12.3479C2.1555 12.3479 3.54119 10.8913 3.54119 9.09417C3.54119 8.00702 3.03435 7.04465 2.25513 6.45373L2.25514 6.45376Z" fill="url(#paint7_linear_88_2634)"/>
<path d="M1.2863 13.1176C1.0964 13.1176 0.909942 13.1303 0.726084 13.1531C0.818864 13.329 0.919879 13.5008 1.02465 13.6688C1.22918 13.9966 1.45708 14.3093 1.69985 14.607C2.05693 15.0447 2.4338 15.4668 2.84452 15.849C3.21828 16.1968 3.6287 16.5002 4.03879 16.7994C4.51967 17.1502 5.0098 17.4889 5.52106 17.7886C5.63548 17.8556 5.75126 17.9195 5.86815 17.9815C5.87115 17.9124 5.87237 17.843 5.87237 17.773C5.87237 15.2021 3.81904 13.1175 1.28639 13.1175L1.2863 13.1176Z" fill="url(#paint8_linear_88_2634)" stroke="#FEC20F" stroke-width="0.467775"/>
<path d="M6.24323 15.4012C5.18917 15.4012 4.21107 15.7414 3.40316 16.3227C3.6118 16.4866 3.82563 16.6437 4.03933 16.7996C4.52021 17.1504 5.01034 17.4891 5.52161 17.7888C5.93135 18.029 6.35974 18.232 6.78761 18.4342C7.27568 18.6649 7.78985 18.8344 8.27097 19.0808C8.43275 19.1636 8.5911 19.2564 8.74152 19.3602C8.98605 19.5291 9.24255 19.692 9.44099 19.918C9.67881 20.1889 10.0191 20.8551 10.0191 20.8551L10.0202 20.854C10.2111 21.4313 10.5561 21.9414 11.0077 22.34C11.1757 21.8143 11.2672 21.2516 11.2672 20.6666C11.2672 17.7589 9.01789 15.4011 6.24335 15.4011L6.24323 15.4012Z" fill="url(#paint9_linear_88_2634)" stroke="#FEC20F" stroke-width="0.520674"/>
<path d="M9.09193 17.5723C8.22706 17.5723 7.4366 17.9051 6.83526 18.455C7.30929 18.6747 7.80543 18.842 8.27112 19.0805C8.4329 19.1633 8.59125 19.256 8.74167 19.3599C8.9862 19.5288 9.2427 19.6917 9.44114 19.9177C9.67896 20.1886 10.0193 20.8548 10.0193 20.8548L10.0203 20.8537C10.3341 21.8026 11.0625 22.5713 11.9995 22.9585C12.3187 22.4203 12.5038 21.7869 12.5038 21.1087C12.5038 19.1553 10.9762 17.5723 9.09203 17.5723L9.09193 17.5723Z" fill="url(#paint10_linear_88_2634)" stroke="#FEC20F" stroke-width="0.351691"/>
<path d="M2.32609 15.3266C2.49384 15.5068 2.6667 15.6818 2.8462 15.8489C3.21996 16.1967 3.63038 16.5001 4.04047 16.7993C4.52135 17.1501 5.01148 17.4888 5.52274 17.7885C5.93249 18.0286 6.36087 18.2316 6.78875 18.4339C7.07531 18.5694 7.37077 18.6842 7.66334 18.8054C6.94195 16.9168 4.85368 15.5089 2.3262 15.3266L2.32609 15.3266Z" fill="url(#paint11_linear_88_2634)" stroke="#FEC20F" stroke-width="0.818478"/>
<path d="M10.7069 8.45101C10.5007 8.45101 10.2985 8.47201 10.1034 8.512C10.0575 8.69818 10.0306 8.89079 10.019 9.08089C10.0058 9.29739 10.0096 9.52842 10.0918 9.72743C10.2009 9.99139 10.4139 10.1998 10.6225 10.3861C10.8189 10.5616 11.0516 10.6892 11.285 10.8042C11.5279 10.9238 11.7841 11.0167 12.0446 11.0837C12.3444 11.1607 12.6532 11.2079 12.9614 11.2234C13.2397 11.2374 13.5185 11.2293 13.797 11.2101C13.5548 9.64537 12.2639 8.45098 10.7069 8.45098L10.7069 8.45101Z" fill="url(#paint12_radial_88_2634)"/>
<path d="M13.3497 6.27415C13.1427 6.27379 12.9352 6.29129 12.7326 6.33071C12.4026 6.39488 12.0844 6.52514 11.7799 6.67338C11.4953 6.81194 11.2108 6.96672 10.9717 7.18017C10.6914 7.43061 10.4282 7.72298 10.2607 8.06734C10.1098 8.37752 10.0403 8.73329 10.0191 9.08092C10.0118 9.20124 10.0107 9.32558 10.0244 9.44686C10.3675 9.58467 10.7398 9.66089 11.129 9.66089C12.8387 9.66089 14.2244 8.20433 14.2244 6.40716V6.37057C14.0579 6.33421 13.8896 6.309 13.7211 6.29294C13.598 6.2812 13.474 6.27431 13.3498 6.27409L13.3497 6.27415Z" fill="url(#paint13_linear_88_2634)" stroke="#FEC20F" stroke-width="0.321323"/>
<path d="M19.0089 6.211C19.0067 6.2127 19.0048 6.21484 19.0026 6.21654C18.4252 6.66226 17.7846 7.01918 17.1331 7.33218C16.8926 7.4477 16.6506 7.60929 16.3861 7.61053C16.2629 7.61111 16.1426 7.51517 16.0359 7.44308C15.8829 7.33971 15.72 7.15438 15.5717 7.04051C15.3012 6.83291 15.0739 6.66229 14.7583 6.53372C14.4282 6.39926 14.0737 6.32668 13.7212 6.29308C13.4508 6.26731 13.1755 6.26725 12.9057 6.30306C12.8887 6.44075 12.8804 6.58082 12.8804 6.72337C12.8804 8.51358 14.261 9.96488 15.9641 9.96488C17.6672 9.96488 19.0479 8.51358 19.0479 6.72337C19.0479 6.54892 19.0341 6.378 19.0089 6.21101L19.0089 6.211Z" fill="url(#paint14_linear_88_2634)" stroke="#FEC20F" stroke-width="0.320079"/>
<path d="M16.4065 7.60924C16.3998 7.60948 16.3931 7.61031 16.3864 7.61034C16.3829 7.61036 16.3794 7.61048 16.3759 7.61034C15.0536 7.62288 13.9853 8.75252 13.9853 10.1455C13.9853 10.5124 14.0597 10.8608 14.1931 11.1757C14.2812 11.1665 14.369 11.1574 14.4568 11.1468C15.1265 11.0662 15.7971 10.9558 16.4466 10.7665C17.0055 10.6035 17.5456 10.3702 18.0745 10.1199C18.315 10.0061 18.5501 9.88055 18.7814 9.74731C18.5999 8.53873 17.6063 7.61355 16.4065 7.60923L16.4065 7.60924Z" fill="url(#paint15_linear_88_2634)" stroke="#FEC20F" stroke-width="0.250443"/>
<path d="M13.3497 6.2741C13.1427 6.27374 12.9352 6.29124 12.7326 6.33066C12.4026 6.39482 12.0844 6.52509 11.7799 6.67332C11.6228 6.74981 11.4661 6.83155 11.3167 6.92506C11.4191 7.71014 12.0598 8.31572 12.8349 8.31572C13.6811 8.31572 14.3667 7.59392 14.3667 6.7044C14.3667 6.5991 14.3577 6.49688 14.3393 6.39722C14.1362 6.34591 13.9283 6.31272 13.7211 6.29298C13.5979 6.28124 13.474 6.27434 13.3497 6.27413L13.3497 6.2741Z" fill="url(#paint16_linear_88_2634)" stroke="#FEC20F" stroke-width="0.159045"/>
<path d="M12.2104 16.0664C11.5684 16.5278 11.148 17.2967 11.148 18.1679C11.148 19.5794 12.252 20.7241 13.6135 20.7241C14.975 20.7241 16.078 19.5794 16.078 18.1679C16.078 17.9218 16.0436 17.6845 15.9809 17.4593C15.4463 16.9312 14.6944 16.562 13.7549 16.4024L13.757 16.4002C13.757 16.4002 13.0112 16.2468 12.2103 16.0664L12.2104 16.0664Z" fill="url(#paint17_linear_88_2634)" stroke="#FEC20F" stroke-width="0.254125"/>
<path d="M15.04 16.8027C14.9703 17.0146 14.9324 17.241 14.9324 17.4759C14.9324 18.6041 15.8014 19.5307 16.9127 19.6351C16.8579 18.3681 16.1944 17.3627 15.04 16.8028L15.04 16.8027Z" fill="#FB000C" stroke="#FEC20F" stroke-width="0.220655"/>
<path d="M22.1804 1.5487C21.3159 2.12295 20.7413 3.13571 20.7413 4.29007C20.7413 5.37448 21.2483 6.33433 22.0263 6.92277C22.2794 6.59727 22.5142 6.25558 22.7279 5.90032C22.9557 5.52157 23.1751 5.13338 23.343 4.72148C23.4892 4.36289 23.6145 3.98978 23.6806 3.60584C23.7236 3.3561 23.7818 3.0894 23.7164 2.84507C23.6585 2.6285 23.5077 2.44443 23.3546 2.28726C23.1216 2.04824 22.8238 1.88813 22.5348 1.73054C22.4181 1.66688 22.2997 1.60699 22.1804 1.54867L22.1804 1.5487Z" fill="url(#paint18_radial_88_2634)"/>
<path d="M16.2986 21.7397C15.2943 21.8049 14.4178 22.3672 13.89 23.1958C14.889 23.0567 15.7525 22.512 16.2986 21.7397Z" fill="url(#paint19_radial_88_2634)"/>
<path d="M15.9351 0.253482C15.5711 0.254259 15.2075 0.265785 14.8442 0.285642C14.1865 0.321601 13.5293 0.39272 12.8788 0.500781C12.1726 0.61808 11.4708 0.774953 10.7804 0.969883C10.0291 1.18195 9.28407 1.42749 8.56167 1.73065C7.78029 2.05853 7.01981 2.44405 6.28286 2.87067C5.78766 3.15734 5.30442 3.47033 4.84805 3.82104C4.38986 4.17316 3.96154 4.56776 3.54619 4.97437C3.25084 5.26349 2.96673 5.56668 2.70219 5.88706C2.34913 6.3146 2.01693 6.76323 1.71366 7.23113C1.42647 7.67421 1.14953 8.12795 0.92978 8.61178C0.754497 8.99777 0.617971 9.40438 0.507778 9.81613C0.395711 10.2348 0.29938 10.6622 0.267237 11.0959C0.243807 11.412 0.246516 11.7348 0.303111 12.0462C0.348657 12.2969 0.443493 12.5368 0.543652 12.7693C0.678774 13.0829 0.847234 13.3808 1.02683 13.6687C1.23136 13.9965 1.45926 14.3092 1.70203 14.6069C2.05911 15.0446 2.43598 15.4667 2.8467 15.8489C3.22046 16.1967 3.63088 16.5001 4.04097 16.7993C4.52185 17.1501 5.01198 17.4888 5.52324 17.7885C5.93299 18.0286 6.36137 18.2316 6.78925 18.4339C7.27732 18.6646 7.79149 18.8341 8.2726 19.0805C8.43439 19.1633 8.59273 19.256 8.74315 19.3599C8.98769 19.5288 9.24419 19.6917 9.44263 19.9177C9.68044 20.1886 10.0208 20.8548 10.0208 20.8548L10.0218 20.8537C10.4779 22.2329 11.8108 23.2313 13.3852 23.2313C15.3359 23.2313 16.9172 21.6976 16.9172 19.8068C16.9172 18.0373 15.7641 16.7435 13.7564 16.4023L13.7585 16.4001C13.7585 16.4001 11.6481 15.9678 10.7084 15.697C9.93992 15.4755 9.17923 15.2146 8.44124 14.8985C7.81698 14.6312 7.20372 14.3286 6.62028 13.9737C6.0896 13.6509 5.51882 13.3553 5.10107 12.8836C4.60041 12.3182 4.05272 11.6506 3.99225 10.8808C3.92046 9.96665 4.43752 9.07174 4.92066 8.30795C5.59593 7.24043 6.5929 6.42161 7.57292 5.65864C8.38573 5.02584 9.27906 4.49392 10.2136 4.08724C11.6623 3.45682 13.1939 2.9957 14.7469 2.76979C15.5193 2.65745 16.3104 2.67153 17.0859 2.75648C18.051 2.86221 19.0537 2.96977 19.9323 3.40302C20.2096 3.53978 20.5783 3.6868 20.6549 3.99853C20.7401 4.34493 20.4522 4.6945 20.2572 4.98772C19.9297 5.48011 19.4645 5.86081 19.0038 6.21646C18.4265 6.66217 17.7859 7.0191 17.1344 7.3321C16.8939 7.44762 16.6518 7.60921 16.3874 7.61045C16.2641 7.61103 16.1439 7.51493 16.0372 7.44284C15.8842 7.33947 15.7215 7.15446 15.5731 7.04059C15.3026 6.83299 15.0751 6.66223 14.7596 6.53363C14.4295 6.39916 14.075 6.32658 13.7225 6.29298C13.394 6.26168 13.0582 6.26762 12.7339 6.33069C12.404 6.39485 12.0857 6.52512 11.7813 6.67336C11.4967 6.81191 11.2121 6.96669 10.9731 7.18015C10.6927 7.43058 10.4295 7.72295 10.2621 8.06732C10.1112 8.3775 10.0416 8.73327 10.0205 9.0809C10.0073 9.29739 10.011 9.52842 10.0933 9.72743C10.2023 9.99139 10.4153 10.1998 10.6239 10.3861C10.8204 10.5616 11.0531 10.6892 11.2865 10.8042C11.5293 10.9238 11.7856 11.0167 12.0461 11.0837C12.3459 11.1607 12.6546 11.2079 12.9629 11.2234C13.4612 11.2484 13.9621 11.2066 14.4578 11.1469C15.1274 11.0662 15.7981 10.9558 16.4476 10.7665C17.0065 10.6036 17.5466 10.3703 18.0754 10.12C18.4607 9.93764 18.8333 9.72687 19.1959 9.49894C19.5785 9.25839 19.9543 9.00223 20.3057 8.71379C20.6041 8.46895 20.8796 8.19405 21.1497 7.91534C21.4481 7.60755 21.7397 7.29091 22.0054 6.95165C22.2669 6.61759 22.5091 6.26608 22.7291 5.90035C22.9569 5.5216 23.1763 5.13341 23.3442 4.72151C23.4904 4.36292 23.6157 3.98981 23.6818 3.60588C23.7248 3.35614 23.783 3.08944 23.7177 2.84511C23.6597 2.62853 23.509 2.44446 23.3558 2.28729C23.1229 2.04827 22.825 1.88817 22.5361 1.73057C21.963 1.41808 21.3556 1.17215 20.7394 0.969801C20.114 0.764471 19.468 0.630405 18.8224 0.512907C18.2281 0.404736 17.6279 0.323659 17.0258 0.285571C16.6627 0.262602 16.2989 0.252633 15.9349 0.253411L15.9351 0.253482Z" stroke="#FFFFFB" stroke-width="0.5"/>
<defs>
<radialGradient id="paint0_radial_88_2634" cx="0" cy="0" r="1" gradientUnits="userSpaceOnUse" gradientTransform="translate(10.9076 16.5272) scale(2.99622 1.85364)">
<stop stop-color="#9F1621"/>
<stop offset="1" stop-color="#9F1621" stop-opacity="0"/>
</radialGradient>
<radialGradient id="paint1_radial_88_2634" cx="0" cy="0" r="1" gradientUnits="userSpaceOnUse" gradientTransform="translate(6.14049 3.83317) scale(2.63225 2.127)">
<stop stop-color="#C52113"/>
<stop offset="1" stop-color="#C52113" stop-opacity="0"/>
</radialGradient>
<linearGradient id="paint2_linear_88_2634" x1="4.44897" y1="7.09008" x2="0.168778" y2="4.54463" gradientUnits="userSpaceOnUse">
<stop stop-color="#FEDA0C"/>
<stop offset="1" stop-color="#FEDA0C" stop-opacity="0"/>
</linearGradient>
<linearGradient id="paint3_linear_88_2634" x1="4.08774" y1="6.32108" x2="1.40187" y2="3.64085" gradientUnits="userSpaceOnUse">
<stop stop-color="#FEC20F"/>
<stop offset="1" stop-color="#FEC20F" stop-opacity="0"/>
</linearGradient>
<linearGradient id="paint4_linear_88_2634" x1="4.13862" y1="5.05255" x2="7.36513" y2="7.76049" gradientUnits="userSpaceOnUse">
<stop stop-color="#FEDA0C"/>
<stop offset="1" stop-color="#FEDA0C" stop-opacity="0"/>
</linearGradient>
<linearGradient id="paint5_linear_88_2634" x1="4.13862" y1="5.05255" x2="7.36513" y2="7.76049" gradientUnits="userSpaceOnUse">
<stop stop-color="#FEC20F"/>
<stop offset="1" stop-color="#FEC20F" stop-opacity="0"/>
</linearGradient>
<radialGradient id="paint6_radial_88_2634" cx="0" cy="0" r="1" gradientUnits="userSpaceOnUse" gradientTransform="translate(4.17558 11.1856) scale(2.69666 3.31311)">
<stop stop-color="#9F1621"/>
<stop offset="1" stop-color="#9F1621" stop-opacity="0"/>
</radialGradient>
<linearGradient id="paint7_linear_88_2634" x1="2.65307" y1="6.40773" x2="0.371559" y2="12.0129" gradientUnits="userSpaceOnUse">
<stop stop-color="#FEDA0C"/>
<stop offset="1" stop-color="#FEDA0C" stop-opacity="0"/>
</linearGradient>
<linearGradient id="paint8_linear_88_2634" x1="0.215669" y1="18.1352" x2="6.4135" y2="12.7148" gradientUnits="userSpaceOnUse">
<stop stop-color="#FEDA0C"/>
<stop offset="1" stop-color="#FEDA0C" stop-opacity="0"/>
</linearGradient>
<linearGradient id="paint9_linear_88_2634" x1="5.49231" y1="13.953" x2="8.46156" y2="21.6132" gradientUnits="userSpaceOnUse">
<stop stop-color="#FEDA0C"/>
<stop offset="1" stop-color="#FEDA0C" stop-opacity="0"/>
</linearGradient>
<linearGradient id="paint10_linear_88_2634" x1="7.82515" y1="20.7218" x2="12.5283" y2="20.3085" gradientUnits="userSpaceOnUse">
<stop stop-color="#FEDA0C"/>
<stop offset="1" stop-color="#FEDA0C" stop-opacity="0"/>
</linearGradient>
<linearGradient id="paint11_linear_88_2634" x1="3.59166" y1="18.0801" x2="6.90383" y2="17.1086" gradientUnits="userSpaceOnUse">
<stop stop-color="#FEDA0C"/>
<stop offset="1" stop-color="#FEDA0C" stop-opacity="0"/>
</linearGradient>
<radialGradient id="paint12_radial_88_2634" cx="0" cy="0" r="1" gradientUnits="userSpaceOnUse" gradientTransform="translate(11.3732 10.5505) scale(1.91197 1.41086)">
<stop stop-color="#9F1621"/>
<stop offset="1" stop-color="#9F1621" stop-opacity="0"/>
</radialGradient>
<linearGradient id="paint13_linear_88_2634" x1="12.9364" y1="6.7001" x2="11.2631" y2="8.44202" gradientUnits="userSpaceOnUse">
<stop stop-color="#FEDA0C"/>
<stop offset="1" stop-color="#FEDA0C" stop-opacity="0"/>
</linearGradient>
<linearGradient id="paint14_linear_88_2634" x1="13.8749" y1="9.10186" x2="17.9847" y2="6.45337" gradientUnits="userSpaceOnUse">
<stop stop-color="#FEDA0C"/>
<stop offset="1" stop-color="#FEDA0C" stop-opacity="0"/>
</linearGradient>
<linearGradient id="paint15_linear_88_2634" x1="15.85" y1="8.53093" x2="17.7529" y2="13.6932" gradientUnits="userSpaceOnUse">
<stop stop-color="#FEDA0C"/>
<stop offset="1" stop-color="#FEDA0C" stop-opacity="0"/>
</linearGradient>
<linearGradient id="paint16_linear_88_2634" x1="13.8142" y1="6.88919" x2="12.7948" y2="7.65099" gradientUnits="userSpaceOnUse">
<stop stop-color="#FEDA0C"/>
<stop offset="1" stop-color="#FEDA0C" stop-opacity="0"/>
</linearGradient>
<linearGradient id="paint17_linear_88_2634" x1="14.5097" y1="20.3721" x2="12.4035" y2="17.8896" gradientUnits="userSpaceOnUse">
<stop stop-color="#FEDA0C"/>
<stop offset="1" stop-color="#FEDA0C" stop-opacity="0"/>
</linearGradient>
<radialGradient id="paint18_radial_88_2634" cx="0" cy="0" r="1" gradientUnits="userSpaceOnUse" gradientTransform="translate(23.2738 4.00116) rotate(15.7301) scale(1.90606 3.38556)">
<stop stop-color="#9F1621"/>
<stop offset="1" stop-color="#9F1621" stop-opacity="0"/>
</radialGradient>
<radialGradient id="paint19_radial_88_2634" cx="0" cy="0" r="1" gradientUnits="userSpaceOnUse" gradientTransform="translate(15.5055 22.696) scale(1.22441 0.749186)">
<stop stop-color="#9F1621"/>
<stop offset="1" stop-color="#9F1621" stop-opacity="0"/>
</radialGradient>
</defs>
</svg>
