<svg width="300" height="60" viewBox="0 0 300 60" fill="none" xmlns="http://www.w3.org/2000/svg">
<circle cx="110" cy="30" r="30" fill="#1D1E25"/>
<path d="M103 21.9997L100 24.9997L103 27.9997" stroke="white" stroke-width="1.5" stroke-linecap="round" stroke-linejoin="round"/>
<path d="M117 32L120 35L117 38" stroke="white" stroke-width="1.5" stroke-linecap="round" stroke-linejoin="round"/>
<path d="M99.9999 25.0003H120" stroke="white" stroke-width="1.5" stroke-linecap="round" stroke-linejoin="round"/>
<path d="M99.9999 35H120" stroke="white" stroke-width="1.5" stroke-linecap="round" stroke-linejoin="round"/>
<circle cx="30" cy="30" r="30" fill="#1D1E25"/>
<path d="M31 40H39C40.1046 40 41 39.1046 41 38V22C41 20.8954 40.1046 20 39 20H21C19.8954 20 19 20.8954 19 22V38C19 39.1046 19.8954 40 21 40H22" stroke="white" stroke-width="1.5"/>
<path d="M33 29C33 27.8954 33.8954 27 35 27H41V33H35C33.8954 33 33 32.1046 33 31V29Z" stroke="white" stroke-width="1.5"/>
<path d="M26.5 34L26.5 41M23 37.5H30" stroke="white" stroke-width="1.5"/>
<circle cx="36" cy="30" r="1" fill="white"/>
<circle cx="190" cy="30" r="30" fill="#1D1E25"/>
<path d="M196.667 29H199C199.552 29 200 28.5523 200 28V23C200 22.4477 199.552 22 199 22H181C180.448 22 180 22.4477 180 23V28C180 28.5523 180.448 29 181 29H183.333" stroke="white" stroke-width="1.5"/>
<path d="M195 26V39C195 39.5523 194.552 40 194 40H186C185.448 40 185 39.5523 185 39V26" stroke="white" stroke-width="1.5"/>
<path d="M189.72 35.88V35.08C189.485 35.0533 189.237 34.9893 188.976 34.888C188.72 34.7813 188.499 34.6427 188.312 34.472L188.824 33.68C189.027 33.8293 189.219 33.944 189.4 34.024C189.587 34.104 189.776 34.144 189.968 34.144C190.4 34.144 190.616 33.96 190.616 33.592C190.616 33.4533 190.565 33.336 190.464 33.24C190.363 33.1387 190.232 33.0453 190.072 32.96C189.912 32.8747 189.741 32.7867 189.56 32.696C189.379 32.6053 189.208 32.5013 189.048 32.384C188.888 32.2667 188.757 32.1253 188.656 31.96C188.555 31.7893 188.504 31.584 188.504 31.344C188.504 30.9493 188.613 30.624 188.832 30.368C189.051 30.1067 189.347 29.9387 189.72 29.864V29.04H190.496V29.848C190.752 29.8853 190.976 29.9627 191.168 30.08C191.36 30.1973 191.533 30.3387 191.688 30.504L191.096 31.176C190.952 31.0427 190.813 30.944 190.68 30.88C190.547 30.8107 190.395 30.776 190.224 30.776C190.032 30.776 189.885 30.816 189.784 30.896C189.683 30.976 189.632 31.1067 189.632 31.288C189.632 31.416 189.683 31.5253 189.784 31.616C189.885 31.7013 190.016 31.784 190.176 31.864C190.336 31.944 190.507 32.0267 190.688 32.112C190.869 32.1973 191.04 32.3013 191.2 32.424C191.36 32.5467 191.491 32.696 191.592 32.872C191.693 33.0427 191.744 33.256 191.744 33.512C191.744 33.896 191.637 34.2267 191.424 34.504C191.216 34.776 190.907 34.9573 190.496 35.048V35.88H189.72Z" fill="white"/>
<circle cx="270" cy="30" r="30" fill="#1D1E25"/>
<g clip-path="url(#clip0_72_373)">
<path d="M262 27.0001L262 24.0001C262 22.8955 262.895 22.0001 264 22.0001L267 22.0001" stroke="white" stroke-width="1.5" stroke-linecap="round" stroke-linejoin="round"/>
<path d="M278 33.0001V36.0001C278 37.1046 277.105 38.0001 276 38.0001H273" stroke="white" stroke-width="1.5" stroke-linecap="round" stroke-linejoin="round"/>
<path d="M273 22.0001L276 22.0001C277.105 22.0001 278 22.8955 278 24.0001L278 27.0001" stroke="white" stroke-width="1.5" stroke-linecap="round" stroke-linejoin="round"/>
<path d="M267 38.0001L264 38.0001C262.895 38.0001 262 37.1046 262 36.0001L262 33.0001" stroke="white" stroke-width="1.5" stroke-linecap="round" stroke-linejoin="round"/>
<line x1="259.75" y1="32.25" x2="280.25" y2="32.25" stroke="white" stroke-width="1.5" stroke-linecap="round"/>
</g>
<defs>
<clipPath id="clip0_72_373">
<rect width="24" height="24" fill="white" transform="translate(258 18.0001)"/>
</clipPath>
</defs>
</svg>
