<svg width="312" height="60" viewBox="0 0 312 60" fill="none" xmlns="http://www.w3.org/2000/svg">
<circle cx="114" cy="30" r="30" fill="#F7F7F7"/>
<path d="M107 21.9997L104 24.9997L107 27.9997" stroke="#010101" stroke-width="1.5" stroke-linecap="round" stroke-linejoin="round"/>
<path d="M121 32L124 35L121 38" stroke="#010101" stroke-width="1.5" stroke-linecap="round" stroke-linejoin="round"/>
<path d="M104 25.0003H124" stroke="#010101" stroke-width="1.5" stroke-linecap="round" stroke-linejoin="round"/>
<path d="M104 35H124" stroke="#010101" stroke-width="1.5" stroke-linecap="round" stroke-linejoin="round"/>
<circle cx="30" cy="30" r="30" fill="#F7F7F7"/>
<path d="M31 40H39C40.1046 40 41 39.1046 41 38V22C41 20.8954 40.1046 20 39 20H21C19.8954 20 19 20.8954 19 22V38C19 39.1046 19.8954 40 21 40H22" stroke="black" stroke-width="1.5"/>
<path d="M33 29C33 27.8954 33.8954 27 35 27H41V33H35C33.8954 33 33 32.1046 33 31V29Z" stroke="black" stroke-width="1.5"/>
<path d="M26.5 34L26.5 41M23 37.5H30" stroke="black" stroke-width="1.5"/>
<circle cx="36" cy="30" r="1" fill="black"/>
<circle cx="198" cy="30" r="30" fill="#F7F7F7"/>
<path d="M204.667 29H207C207.552 29 208 28.5523 208 28V23C208 22.4477 207.552 22 207 22H189C188.448 22 188 22.4477 188 23V28C188 28.5523 188.448 29 189 29H191.333" stroke="black" stroke-width="1.5"/>
<path d="M203 26V39C203 39.5523 202.552 40 202 40H194C193.448 40 193 39.5523 193 39V26" stroke="black" stroke-width="1.5"/>
<path d="M197.72 35.88V35.08C197.485 35.0533 197.237 34.9893 196.976 34.888C196.72 34.7813 196.499 34.6427 196.312 34.472L196.824 33.68C197.027 33.8293 197.219 33.944 197.4 34.024C197.587 34.104 197.776 34.144 197.968 34.144C198.4 34.144 198.616 33.96 198.616 33.592C198.616 33.4533 198.565 33.336 198.464 33.24C198.363 33.1387 198.232 33.0453 198.072 32.96C197.912 32.8747 197.741 32.7867 197.56 32.696C197.379 32.6053 197.208 32.5013 197.048 32.384C196.888 32.2667 196.757 32.1253 196.656 31.96C196.555 31.7893 196.504 31.584 196.504 31.344C196.504 30.9493 196.613 30.624 196.832 30.368C197.051 30.1067 197.347 29.9387 197.72 29.864V29.04H198.496V29.848C198.752 29.8853 198.976 29.9627 199.168 30.08C199.36 30.1973 199.533 30.3387 199.688 30.504L199.096 31.176C198.952 31.0427 198.813 30.944 198.68 30.88C198.547 30.8107 198.395 30.776 198.224 30.776C198.032 30.776 197.885 30.816 197.784 30.896C197.683 30.976 197.632 31.1067 197.632 31.288C197.632 31.416 197.683 31.5253 197.784 31.616C197.885 31.7013 198.016 31.784 198.176 31.864C198.336 31.944 198.507 32.0267 198.688 32.112C198.869 32.1973 199.04 32.3013 199.2 32.424C199.36 32.5467 199.491 32.696 199.592 32.872C199.693 33.0427 199.744 33.256 199.744 33.512C199.744 33.896 199.637 34.2267 199.424 34.504C199.216 34.776 198.907 34.9573 198.496 35.048V35.88H197.72Z" fill="black"/>
<circle cx="282" cy="30" r="30" fill="#F7F7F7"/>
<g clip-path="url(#clip0_59_649)">
<path d="M274 27.0001L274 24.0001C274 22.8955 274.895 22.0001 276 22.0001L279 22.0001" stroke="black" stroke-width="1.5" stroke-linecap="round" stroke-linejoin="round"/>
<path d="M290 33.0001V36.0001C290 37.1046 289.105 38.0001 288 38.0001H285" stroke="black" stroke-width="1.5" stroke-linecap="round" stroke-linejoin="round"/>
<path d="M285 22.0001L288 22.0001C289.105 22.0001 290 22.8955 290 24.0001L290 27.0001" stroke="black" stroke-width="1.5" stroke-linecap="round" stroke-linejoin="round"/>
<path d="M279 38.0001L276 38.0001C274.895 38.0001 274 37.1046 274 36.0001L274 33.0001" stroke="black" stroke-width="1.5" stroke-linecap="round" stroke-linejoin="round"/>
<line x1="271.75" y1="32.25" x2="292.25" y2="32.25" stroke="black" stroke-width="1.5" stroke-linecap="round"/>
</g>
<defs>
<clipPath id="clip0_59_649">
<rect width="24" height="24" fill="white" transform="translate(270 18.0001)"/>
</clipPath>
</defs>
</svg>
