<svg width="11" height="9" viewBox="0 0 11 9" fill="none" xmlns="http://www.w3.org/2000/svg">
<path fill-rule="evenodd" clip-rule="evenodd" d="M1.82683 0.320807C1.41885 -0.0986721 0.748054 -0.107989 0.328575 0.299998C-0.0909044 0.707985 -0.100221 1.37878 0.307766 1.79826L2.74244 4.18091L0.307766 6.56356C0.110794 6.75892 0 7.02486 0 7.30228C0 7.57971 0.110794 7.84564 0.307766 8.04101C0.503129 8.23798 0.769066 8.34877 1.04649 8.34877C1.32392 8.34877 1.58985 8.23798 1.78522 8.04101L4.90659 4.91963C5.10356 4.72427 5.21436 4.45833 5.21436 4.18091C5.21436 3.90348 5.10356 3.63754 4.90659 3.44218L1.82683 0.320807ZM10.6707 3.44218L7.54935 0.320807C7.14137 -0.0871795 6.47989 -0.0871795 6.0719 0.320807C5.66392 0.728794 5.66392 1.39027 6.0719 1.79826L8.46496 4.18091L6.0719 6.56356C5.87493 6.75892 5.76414 7.02486 5.76414 7.30228C5.76414 7.57971 5.87493 7.84564 6.0719 8.04101C6.26727 8.23798 6.5332 8.34877 6.81063 8.34877C7.08805 8.34877 7.35399 8.23798 7.54935 8.04101L10.6707 4.91963C10.8733 4.72988 10.9917 4.46704 10.9995 4.18958C11.0073 3.91212 10.9039 3.64304 10.7123 3.44218H10.6707Z" fill="#1D1E25"/>
</svg>
