<svg width="20" height="18" viewBox="0 0 20 18" fill="none" xmlns="http://www.w3.org/2000/svg">
<path d="M18 2H14.83L13.59 0.65C13.4036 0.445393 13.1767 0.281907 12.9235 0.169986C12.6704 0.0580653 12.3968 0.00017027 12.12 0H7.88C7.32 0 6.78 0.24 6.4 0.65L5.17 2H2C0.9 2 0 2.9 0 4V16C0 17.1 0.9 18 2 18H18C19.1 18 20 17.1 20 16V4C20 2.9 19.1 2 18 2ZM11.67 14.7C11.15 14.89 10.59 15 10 15C7.24 15 5 12.76 5 10H3L5.5 7.5L8 10H6C6 12.21 7.79 14 10 14C10.46 14 10.91 13.92 11.32 13.77C11.3821 13.7417 11.4494 13.7264 11.5176 13.7251C11.5859 13.7239 11.6536 13.7366 11.7167 13.7627C11.7798 13.7887 11.8369 13.8274 11.8844 13.8765C11.9319 13.9255 11.9688 13.9837 11.9929 14.0476C12.0169 14.1115 12.0276 14.1797 12.0242 14.2478C12.0208 14.316 12.0034 14.3828 11.9731 14.4439C11.9428 14.5051 11.9003 14.5594 11.8482 14.6035C11.796 14.6475 11.7354 14.6804 11.67 14.7ZM14.5 12.5L12 10H14C14 7.79 12.21 6 10 6C9.54 6 9.09 6.08 8.68 6.23C8.6179 6.25834 8.55064 6.27362 8.48239 6.27488C8.41415 6.27614 8.34637 6.26336 8.28327 6.23732C8.22017 6.21129 8.16309 6.17256 8.11559 6.12354C8.06808 6.07452 8.03116 6.01626 8.00712 5.95237C7.98308 5.88849 7.97243 5.82034 7.97582 5.75217C7.97922 5.68399 7.9966 5.61724 8.02688 5.55607C8.05716 5.49489 8.09969 5.44059 8.15184 5.39654C8.20398 5.35249 8.26462 5.31963 8.33 5.3C8.85 5.11 9.41 5 10 5C12.76 5 15 7.24 15 10H17L14.5 12.5Z" fill="white"/>
</svg>
