<svg width="32" height="32" viewBox="0 0 32 32" fill="none" xmlns="http://www.w3.org/2000/svg">
<path d="M3.23721 5.28372C3.23721 4.16744 4.65117 3.16279 5.91629 3.16279H8.74419C10.7163 3.16279 12.6884 4.98605 12.6884 6.99535V7.40465C12.6884 10.6419 7.44187 13.6186 5.91629 16.0372C6.32559 16.7442 8.7442 19.1628 9.45117 19.8698C10.4558 20.8744 12.4279 22.5488 12.4279 24.2605V25.1163C12.4279 26.6791 10.4558 28.8 9.04187 28.8H5.65582C4.65117 28.8 3.38605 27.6837 3.38605 26.6791V5.32093H3.23721V5.28372ZM16.5582 7.25581C16.5582 6.54884 16.2605 5.43256 16.1489 4.83721C15.8512 4.27907 15.1442 3.27442 15.1442 3.01396H17.9721C19.6837 3.01396 21.8047 4.57674 21.8047 6.25116V7.25581C21.8047 9.52558 14.2884 14.8837 14.2884 15.8884C14.2884 15.8884 19.9442 21.693 20.5023 22.2512C21.6186 23.3674 22.6233 24.3721 23.6279 25.3767C24.1861 25.9349 26.307 28.0558 26.6047 28.614H15.1442C15.8512 27.6093 16.5582 26.6419 16.5582 24.9302V24.3721C16.5582 22.2512 14.9954 20.6884 14.0279 19.5721C13.3209 18.8651 11.0512 16.186 10.493 15.7395C12.1675 13.2093 16.5582 11.386 16.5582 7.25581ZM25.1907 6.54884C25.1907 4.83721 24.1861 4.13023 23.4791 3.16279C26.307 3.16279 27.8698 2.86512 28.5768 5.13488C28.9861 6.4 28.7256 10.2326 28.7256 12.0558C28.7256 16.707 28.7256 21.3953 28.7256 26.1953L18.6791 16C20.2419 13.7302 25.0419 11.2 25.0419 7.77675V6.51163H25.1907V6.54884ZM0 5.9907V26.493C0 29.3209 2.67907 32 5.65582 32H26.7535C29.2837 32 32 29.1721 32 26.3442V5.24651C32 2.56744 29.321 0 26.3442 0H5.65582C2.41861 0.0372093 0 2.75349 0 5.9907Z" fill="#1F489D"/>
</svg>
