<svg width="24" height="24" viewBox="0 0 24 24" fill="none" xmlns="http://www.w3.org/2000/svg">
<path d="M13.5 4.95002C13.5 4.12159 12.8284 3.45002 12 3.45002C11.1716 3.45002 10.5 4.12159 10.5 4.95002H13.5ZM10.5 5.05002C10.5 5.87844 11.1716 6.55002 12 6.55002C12.8284 6.55002 13.5 5.87844 13.5 5.05002H10.5ZM13.5 11.95C13.5 11.1216 12.8284 10.45 12 10.45C11.1716 10.45 10.5 11.1216 10.5 11.95H13.5ZM10.5 12.05C10.5 12.8784 11.1716 13.55 12 13.55C12.8284 13.55 13.5 12.8784 13.5 12.05H10.5ZM13.5 18.95C13.5 18.1216 12.8284 17.45 12 17.45C11.1716 17.45 10.5 18.1216 10.5 18.95H13.5ZM10.5 19.05C10.5 19.8784 11.1716 20.55 12 20.55C12.8284 20.55 13.5 19.8784 13.5 19.05H10.5ZM21.5 4.95001C21.5 4.12159 20.8284 3.45001 20 3.45001C19.1716 3.45001 18.5 4.12159 18.5 4.95001H21.5ZM18.5 5.05001C18.5 5.87844 19.1716 6.55001 20 6.55001C20.8284 6.55001 21.5 5.87844 21.5 5.05001H18.5ZM21.5 11.95C21.5 11.1216 20.8284 10.45 20 10.45C19.1716 10.45 18.5 11.1216 18.5 11.95H21.5ZM18.5 12.05C18.5 12.8784 19.1716 13.55 20 13.55C20.8284 13.55 21.5 12.8784 21.5 12.05H18.5ZM21.5 18.95C21.5 18.1216 20.8284 17.45 20 17.45C19.1716 17.45 18.5 18.1216 18.5 18.95H21.5ZM18.5 19.05C18.5 19.8784 19.1716 20.55 20 20.55C20.8284 20.55 21.5 19.8784 21.5 19.05H18.5ZM5.5 4.95001C5.5 4.12159 4.82843 3.45001 4 3.45001C3.17157 3.45001 2.5 4.12159 2.5 4.95001H5.5ZM2.5 5.05001C2.5 5.87844 3.17157 6.55001 4 6.55001C4.82843 6.55001 5.5 5.87844 5.5 5.05001H2.5ZM5.5 11.95C5.5 11.1216 4.82843 10.45 4 10.45C3.17157 10.45 2.5 11.1216 2.5 11.95H5.5ZM2.5 12.05C2.5 12.8784 3.17157 13.55 4 13.55C4.82843 13.55 5.5 12.8784 5.5 12.05H2.5ZM5.5 18.95C5.5 18.1216 4.82843 17.45 4 17.45C3.17157 17.45 2.5 18.1216 2.5 18.95H5.5ZM2.5 19.05C2.5 19.8784 3.17157 20.55 4 20.55C4.82843 20.55 5.5 19.8784 5.5 19.05H2.5ZM10.5 4.95002V5.05002H13.5V4.95002H10.5ZM10.5 11.95V12.05H13.5V11.95H10.5ZM10.5 18.95V19.05H13.5V18.95H10.5ZM18.5 4.95001V5.05001H21.5V4.95001H18.5ZM18.5 11.95V12.05H21.5V11.95H18.5ZM18.5 18.95V19.05H21.5V18.95H18.5ZM2.5 4.95001V5.05001H5.5V4.95001H2.5ZM2.5 11.95V12.05H5.5V11.95H2.5ZM2.5 18.95V19.05H5.5V18.95H2.5Z" fill="#1D1E25"/>
</svg>
