<svg width="24" height="24" viewBox="0 0 24 24" fill="none" xmlns="http://www.w3.org/2000/svg">
<path d="M13 22H21C22.1046 22 23 21.1046 23 20V4C23 2.89543 22.1046 2 21 2H3C1.89543 2 1 2.89543 1 4V20C1 21.1046 1.89543 22 3 22H4" stroke="black" stroke-width="1.5"/>
<path d="M15 11C15 9.89543 15.8954 9 17 9H23V15H17C15.8954 15 15 14.1046 15 13V11Z" stroke="black" stroke-width="1.5"/>
<path d="M8.5 16L8.5 23M5 19.5H12" stroke="black" stroke-width="1.5"/>
<circle cx="18" cy="12" r="1" fill="black"/>
</svg>
